  0
SECTION
  2
HEADER
  9
$ACADVER
  1
AC1018
  9
$ACADMAINTVER
 70
     0
  9
$DWGCODEPAGE
  3
ASCII
  9
$INSBASE
 10
0.0
 20
0.0
 30
0.0
  9
$EXTMIN
 10
1.000000000000000E+20
 20
1.000000000000000E+20
 30
1.000000000000000E+20
  9
$EXTMAX
 10
-1.000000000000000E+20
 20
-1.000000000000000E+20
 30
-1.000000000000000E+20
  9
$LIMMIN
 10
0.0
 20
0.0
  9
$LIMMAX
 10
12.0
 20
9.0
  9
$ORTHOMODE
 70
     0
  9
$REGENMODE
 70
     1
  9
$FILLMODE
 70
     1
  9
$QTEXTMODE
 70
     0
  9
$MIRRTEXT
 70
     1
  9
$LTSCALE
 40
1.0
  9
$ATTMODE
 70
     1
  9
$TEXTSIZE
 40
0.2
  9
$TRACEWID
 40
0.05
  9
$TEXTSTYLE
  7
Standard
  9
$CLAYER
  8
0
  9
$CELTYPE
  6
ByLayer
  9
$CECOLOR
 62
   256
  9
$CELTSCALE
 40
1.0
  9
$DISPSILH
 70
     0
  9
$DIMSCALE
 40
1.0
  9
$DIMASZ
 40
0.18
  9
$DIMEXO
 40
0.0625
  9
$DIMDLI
 40
0.38
  9
$DIMRND
 40
0.0
  9
$DIMDLE
 40
0.0
  9
$DIMEXE
 40
0.18
  9
$DIMTP
 40
0.0
  9
$DIMTM
 40
0.0
  9
$DIMTXT
 40
0.18
  9
$DIMCEN
 40
0.09
  9
$DIMTSZ
 40
0.0
  9
$DIMTOL
 70
     0
  9
$DIMLIM
 70
     0
  9
$DIMTIH
 70
     1
  9
$DIMTOH
 70
     1
  9
$DIMSE1
 70
     0
  9
$DIMSE2
 70
     0
  9
$DIMTAD
 70
     0
  9
$DIMZIN
 70
     0
  9
$DIMBLK
  1

  9
$DIMASO
 70
     1
  9
$DIMSHO
 70
     1
  9
$DIMPOST
  1

  9
$DIMAPOST
  1

  9
$DIMALT
 70
     0
  9
$DIMALTD
 70
     2
  9
$DIMALTF
 40
25.4
  9
$DIMLFAC
 40
1.0
  9
$DIMTOFL
 70
     0
  9
$DIMTVP
 40
0.0
  9
$DIMTIX
 70
     0
  9
$DIMSOXD
 70
     0
  9
$DIMSAH
 70
     0
  9
$DIMBLK1
  1

  9
$DIMBLK2
  1

  9
$DIMSTYLE
  2
Standard
  9
$DIMCLRD
 70
     0
  9
$DIMCLRE
 70
     0
  9
$DIMCLRT
 70
     0
  9
$DIMTFAC
 40
1.0
  9
$DIMGAP
 40
0.09
  9
$DIMJUST
 70
     0
  9
$DIMSD1
 70
     0
  9
$DIMSD2
 70
     0
  9
$DIMTOLJ
 70
     1
  9
$DIMTZIN
 70
     0
  9
$DIMALTZ
 70
     0
  9
$DIMALTTZ
 70
     0
  9
$DIMUPT
 70
     0
  9
$DIMDEC
 70
     4
  9
$DIMTDEC
 70
     4
  9
$DIMALTU
 70
     2
  9
$DIMALTTD
 70
     2
  9
$DIMTXSTY
  7
Standard
  9
$DIMAUNIT
 70
     0
  9
$DIMADEC
 70
     0
  9
$DIMALTRND
 40
0.0
  9
$DIMAZIN
 70
     0
  9
$DIMDSEP
 70
    46
  9
$DIMATFIT
 70
     3
  9
$DIMFRAC
 70
     0
  9
$DIMLDRBLK
  1

  9
$DIMLUNIT
 70
     2
  9
$DIMLWD
 70
    -2
  9
$DIMLWE
 70
    -2
  9
$DIMTMOVE
 70
     0
  9
$LUNITS
 70
     2
  9
$LUPREC
 70
     4
  9
$SKETCHINC
 40
0.1
  9
$FILLETRAD
 40
0.5
  9
$AUNITS
 70
     0
  9
$AUPREC
 70
     0
  9
$MENU
  1
.
  9
$ELEVATION
 40
0.0
  9
$PELEVATION
 40
0.0
  9
$THICKNESS
 40
0.0
  9
$LIMCHECK
 70
     0
  9
$CHAMFERA
 40
0.5
  9
$CHAMFERB
 40
0.5
  9
$CHAMFERC
 40
1.0
  9
$CHAMFERD
 40
0.0
  9
$SKPOLY
 70
     0
  9
$TDCREATE
 40
2455265.896097674
  9
$TDUCREATE
 40
2455265.854431007
  9
$TDUPDATE
 40
2455265.896097685
  9
$TDUUPDATE
 40
2455265.854431019
  9
$TDINDWG
 40
0.0000000116
  9
$TDUSRTIMER
 40
0.0000000116
  9
$USRTIMER
 70
     1
  9
$ANGBASE
 50
0.0
  9
$ANGDIR
 70
     0
  9
$PDMODE
 70
     0
  9
$PDSIZE
 40
0.0
  9
$PLINEWID
 40
0.0
  9
$SPLFRAME
 70
     0
  9
$SPLINETYPE
 70
     6
  9
$SPLINESEGS
 70
     8
  9
$HANDSEED
  5
45
  9
$SURFTAB1
 70
     6
  9
$SURFTAB2
 70
     6
  9
$SURFTYPE
 70
     6
  9
$SURFU
 70
     6
  9
$SURFV
 70
     6
  9
$UCSBASE
  2

  9
$UCSNAME
  2

  9
$UCSORG
 10
0.0
 20
0.0
 30
0.0
  9
$UCSXDIR
 10
1.0
 20
0.0
 30
0.0
  9
$UCSYDIR
 10
0.0
 20
1.0
 30
0.0
  9
$UCSORTHOREF
  2

  9
$UCSORTHOVIEW
 70
     0
  9
$UCSORGTOP
 10
0.0
 20
0.0
 30
0.0
  9
$UCSORGBOTTOM
 10
0.0
 20
0.0
 30
0.0
  9
$UCSORGLEFT
 10
0.0
 20
0.0
 30
0.0
  9
$UCSORGRIGHT
 10
0.0
 20
0.0
 30
0.0
  9
$UCSORGFRONT
 10
0.0
 20
0.0
 30
0.0
  9
$UCSORGBACK
 10
0.0
 20
0.0
 30
0.0
  9
$PUCSBASE
  2

  9
$PUCSNAME
  2

  9
$PUCSORG
 10
0.0
 20
0.0
 30
0.0
  9
$PUCSXDIR
 10
1.0
 20
0.0
 30
0.0
  9
$PUCSYDIR
 10
0.0
 20
1.0
 30
0.0
  9
$PUCSORTHOREF
  2

  9
$PUCSORTHOVIEW
 70
     0
  9
$PUCSORGTOP
 10
0.0
 20
0.0
 30
0.0
  9
$PUCSORGBOTTOM
 10
0.0
 20
0.0
 30
0.0
  9
$PUCSORGLEFT
 10
0.0
 20
0.0
 30
0.0
  9
$PUCSORGRIGHT
 10
0.0
 20
0.0
 30
0.0
  9
$PUCSORGFRONT
 10
0.0
 20
0.0
 30
0.0
  9
$PUCSORGBACK
 10
0.0
 20
0.0
 30
0.0
  9
$USERI1
 70
     0
  9
$USERI2
 70
     0
  9
$USERI3
 70
     0
  9
$USERI4
 70
     0
  9
$USERI5
 70
     0
  9
$USERR1
 40
0.0
  9
$USERR2
 40
0.0
  9
$USERR3
 40
0.0
  9
$USERR4
 40
0.0
  9
$USERR5
 40
0.0
  9
$WORLDVIEW
 70
     1
  9
$SHADEDGE
 70
     3
  9
$SHADEDIF
 70
    70
  9
$TILEMODE
 70
     1
  9
$MAXACTVP
 70
    64
  9
$PINSBASE
 10
0.0
 20
0.0
 30
0.0
  9
$PLIMCHECK
 70
     0
  9
$PEXTMIN
 10
1.000000000000000E+20
 20
1.000000000000000E+20
 30
1.000000000000000E+20
  9
$PEXTMAX
 10
-1.000000000000000E+20
 20
-1.000000000000000E+20
 30
-1.000000000000000E+20
  9
$PLIMMIN
 10
0.0
 20
0.0
  9
$PLIMMAX
 10
12.0
 20
9.0
  9
$UNITMODE
 70
     0
  9
$VISRETAIN
 70
     1
  9
$PLINEGEN
 70
     0
  9
$PSLTSCALE
 70
     1
  9
$TREEDEPTH
 70
  3020
  9
$CMLSTYLE
  2
Standard
  9
$CMLJUST
 70
     0
  9
$CMLSCALE
 40
1.0
  9
$PROXYGRAPHICS
 70
     1
  9
$MEASUREMENT
 70
     0
  9
$CELWEIGHT
370
    -1
  9
$ENDCAPS
280
     0
  9
$JOINSTYLE
280
     0
  9
$LWDISPLAY
290
     1
  9
$INSUNITS
 70
     1
  9
$HYPERLINKBASE
  1

  9
$STYLESHEET
  1

  9
$XEDIT
290
     1
  9
$CEPSNTYPE
380
     0
  9
$PSTYLEMODE
290
     1
  9
$FINGERPRINTGUID
  2
{B1963499-6841-4321-9AFF-958AAF5F4DEC}
  9
$VERSIONGUID
  2
{FAEB1C32-E019-11D5-929B-00C0DF256EC4}
  9
$EXTNAMES
290
     1
  9
$PSVPSCALE
 40
0.0
  9
$OLESTARTUP
290
     0
  9
$SORTENTS
280
   127
  9
$INDEXCTL
280
     0
  9
$HIDETEXT
280
     1
  9
$XCLIPFRAME
290
     0
  9
$HALOGAP
280
     0
  9
$OBSCOLOR
 70
   257
  9
$OBSLTYPE
280
     0
  9
$INTERSECTIONDISPLAY
280
     0
  9
$INTERSECTIONCOLOR
 70
   257
  9
$DIMASSOC
280
     2
  9
$PROJECTNAME
  1

  0
ENDSEC
  0
SECTION
  2
CLASSES
  0
CLASS
  1
ACDBDICTIONARYWDFLT
  2
AcDbDictionaryWithDefault
  3
ObjectDBX Classes
 90
        0
 91
        3
280
     0
281
     0
  0
CLASS
  1
VISUALSTYLE
  2
AcDbVisualStyle
  3
ObjectDBX Classes
 90
     4095
 91
        3
280
     0
281
     0
  0
ENDSEC
  0
SECTION
  2
TABLES
  0
TABLE
  2
VPORT
  5
8
330
0
100
AcDbSymbolTable
 70
     1
  0
VPORT
  5
29
330
8
100
AcDbSymbolTableRecord
100
AcDbViewportTableRecord
  2
*Active
 70
     0
 10
0.0
 20
0.0
 11
1.0
 21
1.0
 12
0.0
 22
0.0
 13
0.0
 23
0.0
 14
0.5
 24
0.5
 15
0.5
 25
0.5
 16
0.0
 26
0.0
 36
1.0
 17
306.0
 27
396.0
 37
0.0
 40
792.0
 41
0.7727272727272727
 42
50.0
 43
0.0
 44
0.0
 50
0.0
 51
0.0
 71
     0
 72
   100
 73
     1
 74
     3
 75
     0
 76
     0
 77
     0
 78
     0
281
     0
 65
     1
110
0.0
120
0.0
130
0.0
111
1.0
121
0.0
131
0.0
112
0.0
122
1.0
132
0.0
 79
     0
146
0.0
  0
ENDTAB
  0
TABLE
  2
LTYPE
  5
5
330
0
100
AcDbSymbolTable
 70
     1
  0
LTYPE
  5
14
330
5
100
AcDbSymbolTableRecord
100
AcDbLinetypeTableRecord
  2
ByBlock
 70
     0
  3

 72
    65
 73
     0
 40
0.0
  0
LTYPE
  5
15
330
5
100
AcDbSymbolTableRecord
100
AcDbLinetypeTableRecord
  2
ByLayer
 70
     0
  3

 72
    65
 73
     0
 40
0.0
  0
LTYPE
  5
16
330
5
100
AcDbSymbolTableRecord
100
AcDbLinetypeTableRecord
  2
Continuous
 70
     0
  3
Solid line
 72
    65
 73
     0
 40
0.0
  0
ENDTAB
  0
TABLE
  2
LAYER
  5
2
330
0
100
AcDbSymbolTable
 70
     2
  0
LAYER
  5
10
330
2
100
AcDbSymbolTableRecord
100
AcDbLayerTableRecord
  2
0
 70
     0
 62
     7
  6
Continuous
370
    -3
390
F
  0
LAYER
  5
3B
330
2
100
AcDbSymbolTableRecord
100
AcDbLayerTableRecord
  2
Ebene 1
 70
     0
 62
     7
  6
Continuous
370
    -3
390
F
  0
ENDTAB
  0
TABLE
  2
STYLE
  5
3
330
0
100
AcDbSymbolTable
 70
     1
  0
STYLE
  5
11
330
3
100
AcDbSymbolTableRecord
100
AcDbTextStyleTableRecord
  2
Standard
 70
     0
 40
0.0
 41
1.0
 50
0.0
 71
     0
 42
0.2
  3
txt
  4

  0
ENDTAB
  0
TABLE
  2
VIEW
  5
6
330
0
100
AcDbSymbolTable
 70
     0
  0
ENDTAB
  0
TABLE
  2
UCS
  5
7
330
0
100
AcDbSymbolTable
 70
     0
  0
ENDTAB
  0
TABLE
  2
APPID
  5
9
330
0
100
AcDbSymbolTable
 70
     1
  0
APPID
  5
12
330
9
100
AcDbSymbolTableRecord
100
AcDbRegAppTableRecord
  2
ACAD
 70
     0
  0
ENDTAB
  0
TABLE
  2
DIMSTYLE
  5
A
330
0
100
AcDbSymbolTable
 70
     1
100
AcDbDimStyleTable
  0
DIMSTYLE
105
27
330
A
100
AcDbSymbolTableRecord
100
AcDbDimStyleTableRecord
  2
Standard
 70
     0
340
11
  0
ENDTAB
  0
TABLE
  2
BLOCK_RECORD
  5
1
330
0
100
AcDbSymbolTable
 70
     2
  0
BLOCK_RECORD
  5
1F
330
1
100
AcDbSymbolTableRecord
100
AcDbBlockTableRecord
  2
*Model_Space
340
22
  0
BLOCK_RECORD
  5
1B
330
1
100
AcDbSymbolTableRecord
100
AcDbBlockTableRecord
  2
*Paper_Space
340
1E
  0
BLOCK_RECORD
  5
23
330
1
100
AcDbSymbolTableRecord
100
AcDbBlockTableRecord
  2
*Paper_Space0
340
26
  0
BLOCK_RECORD
  5
3C
330
1
100
AcDbSymbolTableRecord
100
AcDbBlockTableRecord
  2
block 2
340
0
102
{BLKREFS
331
3D
102
}
  0
ENDTAB
  0
ENDSEC
  0
SECTION
  2
BLOCKS
  0
BLOCK
  5
20
330
1F
100
AcDbEntity
  8
0
100
AcDbBlockBegin
  2
*Model_Space
 70
     0
 71
     0
 10
0.0
 20
0.0
 30
0.0
  3
*Model_Space
  1

  0
ENDBLK
  5
21
330
1F
100
AcDbEntity
  8
0
100
AcDbBlockEnd
  0
BLOCK
  5
1C
330
1B
100
AcDbEntity
 67
     1
  8
0
100
AcDbBlockBegin
  2
*Paper_Space
 70
     0
 71
     0
 10
0.0
 20
0.0
 30
0.0
  3
*Paper_Space
  1

  0
ENDBLK
  5
1D
330
1B
100
AcDbEntity
 67
     1
  8
0
100
AcDbBlockEnd
  0
BLOCK
  5
24
330
23
100
AcDbEntity
  8
0
100
AcDbBlockBegin
  2
*Paper_Space0
 70
     0
 71
     0
 10
0.0
 20
0.0
 30
0.0
  3
*Paper_Space0
  1

  0
ENDBLK
  5
25
330
23
100
AcDbEntity
  8
0
100
AcDbBlockEnd
  0
BLOCK
  5
3E
330
3C
100
AcDbEntity
  8
0
100
AcDbBlockBegin
  2
block 2
 70
     0
 71
     0
 10
0.0
 20
0.0
 30
0.0
  3
block 2
  1

  0
SPLINE
  5
40
330
3C
100
AcDbEntity
  8
Ebene 1
370
     0
100
AcDbSpline
210
0.0
220
0.0
230
1.0
 70
    11
 71
     3
 72
    11
 73
     7
 74
     0
 42
0.0000000001
 43
0.0000000001
 40
0.0
 40
0.0
 40
0.0
 40
0.0
 40
1.0
 40
1.0
 40
1.0
 40
2.0
 40
2.0
 40
2.0
 40
2.0
 10
466.900390625
 20
737.9208984375
 30
0.0
 10
467.30078125
 20
505.85498046875
 30
0.0
 10
467.30078125
 20
272.056640625
 30
0.0
 10
466.900390625
 20
40.0
 30
0.0
 10
466.900390625
 20
272.623046875
 30
0.0
 10
466.900390625
 20
505.29443359375
 30
0.0
 10
466.900390625
 20
737.9208984375
 30
0.0
  0
SPLINE
  5
41
330
3C
100
AcDbEntity
  8
Ebene 1
370
     0
100
AcDbSpline
210
0.0
220
0.0
230
1.0
 70
    11
 71
     3
 72
   293
 73
   289
 74
     0
 42
0.0000000001
 43
0.0000000001
 40
0.0
 40
0.0
 40
0.0
 40
0.0
 40
1.0
 40
1.0
 40
1.0
 40
2.0
 40
2.0
 40
2.0
 40
3.0
 40
3.0
 40
3.0
 40
4.0
 40
4.0
 40
4.0
 40
5.0
 40
5.0
 40
5.0
 40
6.0
 40
6.0
 40
6.0
 40
7.0
 40
7.0
 40
7.0
 40
8.0
 40
8.0
 40
8.0
 40
9.0
 40
9.0
 40
9.0
 40
10.0
 40
10.0
 40
10.0
 40
11.0
 40
11.0
 40
11.0
 40
12.0
 40
12.0
 40
12.0
 40
13.0
 40
13.0
 40
13.0
 40
14.0
 40
14.0
 40
14.0
 40
15.0
 40
15.0
 40
15.0
 40
16.0
 40
16.0
 40
16.0
 40
17.0
 40
17.0
 40
17.0
 40
18.0
 40
18.0
 40
18.0
 40
19.0
 40
19.0
 40
19.0
 40
20.0
 40
20.0
 40
20.0
 40
21.0
 40
21.0
 40
21.0
 40
22.0
 40
22.0
 40
22.0
 40
23.0
 40
23.0
 40
23.0
 40
24.0
 40
24.0
 40
24.0
 40
25.0
 40
25.0
 40
25.0
 40
26.0
 40
26.0
 40
26.0
 40
27.0
 40
27.0
 40
27.0
 40
28.0
 40
28.0
 40
28.0
 40
29.0
 40
29.0
 40
29.0
 40
30.0
 40
30.0
 40
30.0
 40
31.0
 40
31.0
 40
31.0
 40
32.0
 40
32.0
 40
32.0
 40
33.0
 40
33.0
 40
33.0
 40
34.0
 40
34.0
 40
34.0
 40
35.0
 40
35.0
 40
35.0
 40
36.0
 40
36.0
 40
36.0
 40
37.0
 40
37.0
 40
37.0
 40
38.0
 40
38.0
 40
38.0
 40
39.0
 40
39.0
 40
39.0
 40
40.0
 40
40.0
 40
40.0
 40
41.0
 40
41.0
 40
41.0
 40
42.0
 40
42.0
 40
42.0
 40
43.0
 40
43.0
 40
43.0
 40
44.0
 40
44.0
 40
44.0
 40
45.0
 40
45.0
 40
45.0
 40
46.0
 40
46.0
 40
46.0
 40
47.0
 40
47.0
 40
47.0
 40
48.0
 40
48.0
 40
48.0
 40
49.0
 40
49.0
 40
49.0
 40
50.0
 40
50.0
 40
50.0
 40
51.0
 40
51.0
 40
51.0
 40
52.0
 40
52.0
 40
52.0
 40
53.0
 40
53.0
 40
53.0
 40
54.0
 40
54.0
 40
54.0
 40
55.0
 40
55.0
 40
55.0
 40
56.0
 40
56.0
 40
56.0
 40
57.0
 40
57.0
 40
57.0
 40
58.0
 40
58.0
 40
58.0
 40
59.0
 40
59.0
 40
59.0
 40
60.0
 40
60.0
 40
60.0
 40
61.0
 40
61.0
 40
61.0
 40
62.0
 40
62.0
 40
62.0
 40
63.0
 40
63.0
 40
63.0
 40
64.0
 40
64.0
 40
64.0
 40
65.0
 40
65.0
 40
65.0
 40
66.0
 40
66.0
 40
66.0
 40
67.0
 40
67.0
 40
67.0
 40
68.0
 40
68.0
 40
68.0
 40
69.0
 40
69.0
 40
69.0
 40
70.0
 40
70.0
 40
70.0
 40
71.0
 40
71.0
 40
71.0
 40
72.0
 40
72.0
 40
72.0
 40
73.0
 40
73.0
 40
73.0
 40
74.0
 40
74.0
 40
74.0
 40
75.0
 40
75.0
 40
75.0
 40
76.0
 40
76.0
 40
76.0
 40
77.0
 40
77.0
 40
77.0
 40
78.0
 40
78.0
 40
78.0
 40
79.0
 40
79.0
 40
79.0
 40
80.0
 40
80.0
 40
80.0
 40
81.0
 40
81.0
 40
81.0
 40
82.0
 40
82.0
 40
82.0
 40
83.0
 40
83.0
 40
83.0
 40
84.0
 40
84.0
 40
84.0
 40
85.0
 40
85.0
 40
85.0
 40
86.0
 40
86.0
 40
86.0
 40
87.0
 40
87.0
 40
87.0
 40
88.0
 40
88.0
 40
88.0
 40
89.0
 40
89.0
 40
89.0
 40
90.0
 40
90.0
 40
90.0
 40
91.0
 40
91.0
 40
91.0
 40
92.0
 40
92.0
 40
92.0
 40
93.0
 40
93.0
 40
93.0
 40
94.0
 40
94.0
 40
94.0
 40
95.0
 40
95.0
 40
95.0
 40
96.0
 40
96.0
 40
96.0
 40
96.0
 10
213.22021484375
 20
40.0
 30
0.0
 10
198.74609375
 20
40.6142578125
 30
0.0
 10
185.0458984375
 20
40.8857421875
 30
0.0
 10
171.4599609375
 20
42.16015625
 30
0.0
 10
170.24560546875
 20
52.6474609375
 30
0.0
 10
171.0
 20
61.4736328125
 30
0.0
 10
174.10009765625
 20
69.5205078125
 30
0.0
 10
175.3251953125
 20
72.69921875
 30
0.0
 10
178.814453125
 20
77.1640625
 30
0.0
 10
181.30029296875
 20
79.599609375
 30
0.0
 10
187.130859375
 20
85.3154296875
 30
0.0
 10
195.92724609375
 20
88.6435546875
 30
0.0
 10
203.6201171875
 20
92.080078125
 30
0.0
 10
192.79150390625
 20
109.8701171875
 30
0.0
 10
181.71435546875
 20
130.087890625
 30
0.0
 10
172.18017578125
 20
152.3203125
 30
0.0
 10
169.927734375
 20
157.572265625
 30
0.0
 10
168.52978515625
 20
163.298828125
 30
0.0
 10
166.419921875
 20
169.1201171875
 30
0.0
 10
162.32373046875
 20
180.4248046875
 30
0.0
 10
159.92431640625
 20
194.228515625
 30
0.0
 10
163.30029296875
 20
207.5205078125
 30
0.0
 10
164.50927734375
 20
212.28125
 30
0.0
 10
167.87744140625
 20
218.9267578125
 30
0.0
 10
170.97998046875
 20
222.640625
 30
0.0
 10
175.64697265625
 20
228.2255859375
 30
0.0
 10
183.85791015625
 20
231.75390625
 30
0.0
 10
194.02001953125
 20
232.48046875
 30
0.0
 10
195.53076171875
 20
238.248046875
 30
0.0
 10
194.8515625
 20
245.7958984375
 30
0.0
 10
195.93994140625
 20
252.16015625
 30
0.0
 10
198.36328125
 20
266.3271484375
 30
0.0
 10
202.07763671875
 20
280.0458984375
 30
0.0
 10
205.7802734375
 20
293.6806640625
 30
0.0
 10
209.548828125
 20
307.5576171875
 30
0.0
 10
211.97265625
 20
321.3779296875
 30
0.0
 10
216.34033203125
 20
334.9599609375
 30
0.0
 10
217.7470703125
 20
339.3369140625
 30
0.0
 10
219.390625
 20
343.5537109375
 30
0.0
 10
220.66015625
 20
347.919921875
 30
0.0
 10
223.27099609375
 20
356.8994140625
 30
0.0
 10
225.60986328125
 20
365.7197265625
 30
0.0
 10
229.06005859375
 20
374.080078125
 30
0.0
 10
235.98193359375
 20
390.8544921875
 30
0.0
 10
242.11572265625
 20
405.32470703125
 30
0.0
 10
250.66015625
 20
421.6005859375
 30
0.0
 10
252.443359375
 20
424.9970703125
 30
0.0
 10
254.56640625
 20
428.83935546875
 30
0.0
 10
256.419921875
 20
433.12060546875
 30
0.0
 10
258.10009765625
 20
437.0
 30
0.0
 10
261.47705078125
 20
442.02392578125
 30
0.0
 10
261.4599609375
 20
445.3603515625
 30
0.0
 10
261.4384765625
 20
449.63134765625
 30
0.0
 10
257.4892578125
 20
454.13232421875
 30
0.0
 10
255.4599609375
 20
457.12060546875
 30
0.0
 10
248.384765625
 20
467.54052734375
 30
0.0
 10
240.26513671875
 20
477.15576171875
 30
0.0
 10
236.26025390625
 20
490.720703125
 30
0.0
 10
233.29931640625
 20
500.74853515625
 30
0.0
 10
235.1337890625
 20
515.48046875
 30
0.0
 10
238.900390625
 20
523.6005859375
 30
0.0
 10
240.8984375
 20
527.90869140625
 30
0.0
 10
244.04541015625
 20
531.423828125
 30
0.0
 10
245.8603515625
 20
536.560546875
 30
0.0
 10
246.158203125
 20
537.40380859375
 30
0.0
 10
245.9873046875
 20
538.693359375
 30
0.0
 10
246.34033203125
 20
539.4404296875
 30
0.0
 10
246.41015625
 20
539.5888671875
 30
0.0
 10
246.9912109375
 20
539.5576171875
 30
0.0
 10
247.30029296875
 20
540.16064453125
 30
0.0
 10
249.0341796875
 20
543.54541015625
 30
0.0
 10
247.40380859375
 20
549.4140625
 30
0.0
 10
245.6201171875
 20
551.9208984375
 30
0.0
 10
244.53955078125
 20
553.43896484375
 30
0.0
 10
242.42431640625
 20
554.40380859375
 30
0.0
 10
240.8203125
 20
555.7607421875
 30
0.0
 10
237.841796875
 20
558.279296875
 30
0.0
 10
235.2548828125
 20
561.291015625
 30
0.0
 10
232.66015625
 20
564.40087890625
 30
0.0
 10
230.03125
 20
567.55078125
 30
0.0
 10
228.2626953125
 20
570.4189453125
 30
0.0
 10
225.93994140625
 20
574.24072265625
 30
0.0
 10
224.9443359375
 20
575.8798828125
 30
0.0
 10
223.57763671875
 20
577.4248046875
 30
0.0
 10
222.8203125
 20
579.04052734375
 30
0.0
 10
220.77197265625
 20
583.4091796875
 30
0.0
 10
219.583984375
 20
589.2001953125
 30
0.0
 10
217.5400390625
 20
594.640625
 30
0.0
 10
215.6015625
 20
599.8017578125
 30
0.0
 10
214.35693359375
 20
605.619140625
 30
0.0
 10
213.22021484375
 20
610.9609375
 30
0.0
 10
210.7802734375
 20
622.42626953125
 30
0.0
 10
207.341796875
 20
632.94970703125
 30
0.0
 10
205.06005859375
 20
644.08056640625
 30
0.0
 10
202.7353515625
 20
655.421875
 30
0.0
 10
200.1845703125
 20
665.14013671875
 30
0.0
 10
199.06005859375
 20
678.880859375
 30
0.0
 10
198.6572265625
 20
683.802734375
 30
0.0
 10
197.68359375
 20
690.33056640625
 30
0.0
 10
196.89990234375
 20
696.40087890625
 30
0.0
 10
196.1240234375
 20
702.41455078125
 30
0.0
 10
194.7109375
 20
711.09033203125
 30
0.0
 10
196.66015625
 20
714.880859375
 30
0.0
 10
197.62255859375
 20
716.7529296875
 30
0.0
 10
200.68505859375
 20
718.9296875
 30
0.0
 10
203.6201171875
 20
718.720703125
 30
0.0
 10
206.51416015625
 20
718.5146484375
 30
0.0
 10
210.8623046875
 20
714.69482421875
 30
0.0
 10
213.22021484375
 20
712.48095703125
 30
0.0
 10
219.908203125
 20
706.2001953125
 30
0.0
 10
223.43408203125
 20
698.28076171875
 30
0.0
 10
228.580078125
 20
689.9208984375
 30
0.0
 10
231.70361328125
 20
684.84619140625
 30
0.0
 10
234.7451171875
 20
679.54443359375
 30
0.0
 10
237.7001953125
 20
674.32080078125
 30
0.0
 10
243.4580078125
 20
664.1416015625
 30
0.0
 10
250.16845703125
 20
652.59814453125
 30
0.0
 10
254.740234375
 20
641.9208984375
 30
0.0
 10
261.9599609375
 20
625.05859375
 30
0.0
 10
269.099609375
 20
607.08740234375
 30
0.0
 10
275.14013671875
 20
587.9208984375
 30
0.0
 10
275.982421875
 20
585.248046875
 30
0.0
 10
277.2412109375
 20
582.181640625
 30
0.0
 10
278.26025390625
 20
578.560546875
 30
0.0
 10
279.14111328125
 20
575.4296875
 30
0.0
 10
279.9326171875
 20
570.36865234375
 30
0.0
 10
281.6201171875
 20
569.6806640625
 30
0.0
 10
283.1416015625
 20
569.060546875
 30
0.0
 10
286.7431640625
 20
570.91259765625
 30
0.0
 10
289.06005859375
 20
571.6005859375
 30
0.0
 10
291.55908203125
 20
572.3427734375
 30
0.0
 10
295.96728515625
 20
573.7548828125
 30
0.0
 10
297.9404296875
 20
573.5205078125
 30
0.0
 10
302.0244140625
 20
573.0361328125
 30
0.0
 10
308.1337890625
 20
573.2275390625
 30
0.0
 10
312.1005859375
 20
572.80078125
 30
0.0
 10
319.6806640625
 20
571.984375
 30
0.0
 10
323.96484375
 20
568.20458984375
 30
0.0
 10
329.8603515625
 20
564.880859375
 30
0.0
 10
332.2119140625
 20
572.91015625
 30
0.0
 10
334.81640625
 20
580.544921875
 30
0.0
 10
338.0205078125
 20
587.9208984375
 30
0.0
 10
344.01171875
 20
601.71533203125
 30
0.0
 10
353.9873046875
 20
613.70166015625
 30
0.0
 10
361.7802734375
 20
626.560546875
 30
0.0
 10
363.6259765625
 20
629.60546875
 30
0.0
 10
365.5849609375
 20
633.10595703125
 30
0.0
 10
367.7802734375
 20
636.16064453125
 30
0.0
 10
370.001953125
 20
639.251953125
 30
0.0
 10
372.1591796875
 20
642.7646484375
 30
0.0
 10
374.5
 20
645.041015625
 30
0.0
 10
378.3046875
 20
648.740234375
 30
0.0
 10
384.1279296875
 20
651.6240234375
 30
0.0
 10
391.7802734375
 20
651.28076171875
 30
0.0
 10
395.427734375
 20
651.1171875
 30
0.0
 10
401.076171875
 20
643.7265625
 30
0.0
 10
403.30078125
 20
641.20068359375
 30
0.0
 10
406.8525390625
 20
637.1669921875
 30
0.0
 10
409.7509765625
 20
633.17041015625
 30
0.0
 10
412.1806640625
 20
629.20068359375
 30
0.0
 10
414.783203125
 20
624.94873046875
 30
0.0
 10
417.658203125
 20
620.5078125
 30
0.0
 10
419.6201171875
 20
615.7607421875
 30
0.0
 10
421.66796875
 20
610.80712890625
 30
0.0
 10
423.845703125
 20
605.54296875
 30
0.0
 10
425.6201171875
 20
600.880859375
 30
0.0
 10
429.517578125
 20
590.6435546875
 30
0.0
 10
431.8447265625
 20
579.4833984375
 30
0.0
 10
434.2607421875
 20
568.24072265625
 30
0.0
 10
435.978515625
 20
560.24560546875
 30
0.0
 10
437.5244140625
 20
550.96630859375
 30
0.0
 10
438.3408203125
 20
540.880859375
 30
0.0
 10
438.6171875
 20
537.46630859375
 30
0.0
 10
439.3095703125
 20
534.099609375
 30
0.0
 10
438.8203125
 20
532.00048828125
 30
0.0
 10
438.005859375
 20
528.509765625
 30
0.0
 10
434.884765625
 20
525.44091796875
 30
0.0
 10
433.5400390625
 20
523.6005859375
 30
0.0
 10
427.0732421875
 20
522.3310546875
 30
0.0
 10
425.6953125
 20
528.4306640625
 30
0.0
 10
422.0205078125
 20
532.96044921875
 30
0.0
 10
418.916015625
 20
536.78857421875
 30
0.0
 10
415.1630859375
 20
540.5322265625
 30
0.0
 10
411.9404296875
 20
545.20068359375
 30
0.0
 10
410.44140625
 20
547.3720703125
 30
0.0
 10
408.7255859375
 20
549.3935546875
 30
0.0
 10
407.140625
 20
551.6806640625
 30
0.0
 10
405.669921875
 20
553.80224609375
 30
0.0
 10
403.611328125
 20
555.7900390625
 30
0.0
 10
402.3408203125
 20
557.9208984375
 30
0.0
 10
401.1171875
 20
559.97021484375
 30
0.0
 10
400.490234375
 20
562.66455078125
 30
0.0
 10
399.4599609375
 20
564.880859375
 30
0.0
 10
398.4462890625
 20
567.06396484375
 30
0.0
 10
397.09765625
 20
569.119140625
 30
0.0
 10
396.1005859375
 20
571.12060546875
 30
0.0
 10
393.9443359375
 20
575.4482421875
 30
0.0
 10
391.7236328125
 20
579.419921875
 30
0.0
 10
389.3798828125
 20
583.12060546875
 30
0.0
 10
389.9111328125
 20
581.8857421875
 30
0.0
 10
388.220703125
 20
581.80517578125
 30
0.0
 10
387.220703125
 20
582.40087890625
 30
0.0
 10
384.1689453125
 20
579.73291015625
 30
0.0
 10
382.45703125
 20
575.89697265625
 30
0.0
 10
379.7802734375
 20
572.560546875
 30
0.0
 10
377.3603515625
 20
569.54443359375
 30
0.0
 10
374.65625
 20
566.478515625
 30
0.0
 10
371.6201171875
 20
563.6806640625
 30
0.0
 10
368.7470703125
 20
561.03271484375
 30
0.0
 10
366.328125
 20
557.71728515625
 30
0.0
 10
363.7001953125
 20
554.32080078125
 30
0.0
 10
361.0517578125
 20
550.896484375
 30
0.0
 10
357.404296875
 20
547.22900390625
 30
0.0
 10
356.2607421875
 20
543.5205078125
 30
0.0
 10
354.955078125
 20
539.29150390625
 30
0.0
 10
355.283203125
 20
530.4248046875
 30
0.0
 10
356.5
 20
526.24072265625
 30
0.0
 10
357.359375
 20
523.28857421875
 30
0.0
 10
359.2412109375
 20
520.4228515625
 30
0.0
 10
360.33984375
 20
517.3603515625
 30
0.0
 10
361.470703125
 20
514.208984375
 30
0.0
 10
362.7841796875
 20
510.77734375
 30
0.0
 10
363.4599609375
 20
507.7607421875
 30
0.0
 10
365.5693359375
 20
498.35400390625
 30
0.0
 10
364.6015625
 20
488.8603515625
 30
0.0
 10
362.0205078125
 20
480.88037109375
 30
0.0
 10
359.7265625
 20
473.787109375
 30
0.0
 10
355.2001953125
 20
467.24560546875
 30
0.0
 10
351.220703125
 20
460.96044921875
 30
0.0
 10
344.556640625
 20
446.9130859375
 30
0.0
 10
351.0
 20
431.767578125
 30
0.0
 10
357.4599609375
 20
420.640625
 30
0.0
 10
359.4794921875
 20
417.16162109375
 30
0.0
 10
361.154296875
 20
413.73876953125
 30
0.0
 10
363.220703125
 20
410.3203125
 30
0.0
 10
365.3359375
 20
406.81982421875
 30
0.0
 10
366.369140625
 20
402.75830078125
 30
0.0
 10
368.2607421875
 20
399.2802734375
 30
0.0
 10
375.8125
 20
385.39453125
 30
0.0
 10
382.8583984375
 20
369.921875
 30
0.0
 10
388.1806640625
 20
354.880859375
 30
0.0
 10
390.9921875
 20
346.9345703125
 30
0.0
 10
393.646484375
 20
338.8837890625
 30
0.0
 10
395.6201171875
 20
330.16015625
 30
0.0
 10
397.6044921875
 20
321.388671875
 30
0.0
 10
399.18359375
 20
312.0771484375
 30
0.0
 10
400.419921875
 20
302.80078125
 30
0.0
 10
402.3046875
 20
288.6669921875
 30
0.0
 10
404.3642578125
 20
274.783203125
 30
0.0
 10
406.1806640625
 20
260.80078125
 30
0.0
 10
407.435546875
 20
251.1357421875
 30
0.0
 10
405.8349609375
 20
242.2392578125
 30
0.0
 10
407.380859375
 20
232.720703125
 30
0.0
 10
407.4228515625
 20
232.45703125
 30
0.0
 10
408.640625
 20
231.95703125
 30
0.0
 10
407.380859375
 20
232.0
 30
0.0
 10
414.298828125
 20
229.8349609375
 30
0.0
 10
420.9267578125
 20
226.13671875
 30
0.0
 10
426.3408203125
 20
221.919921875
 30
0.0
 10
428.8271484375
 20
219.9833984375
 30
0.0
 10
430.2177734375
 20
219.0166015625
 30
0.0
 10
432.1005859375
 20
216.400390625
 30
0.0
 10
434.6298828125
 20
212.884765625
 30
0.0
 10
437.6845703125
 20
205.2216796875
 30
0.0
 10
438.3408203125
 20
199.3603515625
 30
0.0
 10
439.70703125
 20
187.142578125
 30
0.0
 10
437.08984375
 20
175.93359375
 30
0.0
 10
434.2607421875
 20
166.7197265625
 30
0.0
 10
431.47265625
 20
157.6435546875
 30
0.0
 10
426.3046875
 20
149.9794921875
 30
0.0
 10
422.5
 20
142.0
 30
0.0
 10
414.3251953125
 20
124.8525390625
 30
0.0
 10
406.47265625
 20
108.533203125
 30
0.0
 10
398.5
 20
92.7998046875
 30
0.0
 10
402.8974609375
 20
86.2783203125
 30
0.0
 10
412.224609375
 20
84.7744140625
 30
0.0
 10
417.220703125
 20
78.6396484375
 30
0.0
 10
419.3740234375
 20
75.99609375
 30
0.0
 10
421.2109375
 20
72.51171875
 30
0.0
 10
423.220703125
 20
69.2802734375
 30
0.0
 10
424.97265625
 20
66.4609375
 30
0.0
 10
427.478515625
 20
62.6630859375
 30
0.0
 10
428.2607421875
 20
59.2001953125
 30
0.0
 10
429.5361328125
 20
53.5498046875
 30
0.0
 10
428.6689453125
 20
46.80859375
 30
0.0
 10
429.7001953125
 20
40.0
 30
0.0
 10
357.5400390625
 20
40.0
 30
0.0
 10
285.3798828125
 20
40.0
 30
0.0
 10
213.22021484375
 20
40.0
 30
0.0
  0
SPLINE
  5
42
330
3C
100
AcDbEntity
  8
Ebene 1
370
     0
100
AcDbSpline
210
0.0
220
0.0
230
1.0
 70
    11
 71
     3
 72
   308
 73
   304
 74
     0
 42
0.0000000001
 43
0.0000000001
 40
0.0
 40
0.0
 40
0.0
 40
0.0
 40
1.0
 40
1.0
 40
1.0
 40
2.0
 40
2.0
 40
2.0
 40
3.0
 40
3.0
 40
3.0
 40
4.0
 40
4.0
 40
4.0
 40
5.0
 40
5.0
 40
5.0
 40
6.0
 40
6.0
 40
6.0
 40
7.0
 40
7.0
 40
7.0
 40
8.0
 40
8.0
 40
8.0
 40
9.0
 40
9.0
 40
9.0
 40
10.0
 40
10.0
 40
10.0
 40
11.0
 40
11.0
 40
11.0
 40
12.0
 40
12.0
 40
12.0
 40
13.0
 40
13.0
 40
13.0
 40
14.0
 40
14.0
 40
14.0
 40
15.0
 40
15.0
 40
15.0
 40
16.0
 40
16.0
 40
16.0
 40
17.0
 40
17.0
 40
17.0
 40
18.0
 40
18.0
 40
18.0
 40
19.0
 40
19.0
 40
19.0
 40
20.0
 40
20.0
 40
20.0
 40
21.0
 40
21.0
 40
21.0
 40
22.0
 40
22.0
 40
22.0
 40
23.0
 40
23.0
 40
23.0
 40
24.0
 40
24.0
 40
24.0
 40
25.0
 40
25.0
 40
25.0
 40
26.0
 40
26.0
 40
26.0
 40
27.0
 40
27.0
 40
27.0
 40
28.0
 40
28.0
 40
28.0
 40
29.0
 40
29.0
 40
29.0
 40
30.0
 40
30.0
 40
30.0
 40
31.0
 40
31.0
 40
31.0
 40
32.0
 40
32.0
 40
32.0
 40
33.0
 40
33.0
 40
33.0
 40
34.0
 40
34.0
 40
34.0
 40
35.0
 40
35.0
 40
35.0
 40
36.0
 40
36.0
 40
36.0
 40
37.0
 40
37.0
 40
37.0
 40
38.0
 40
38.0
 40
38.0
 40
39.0
 40
39.0
 40
39.0
 40
40.0
 40
40.0
 40
40.0
 40
41.0
 40
41.0
 40
41.0
 40
42.0
 40
42.0
 40
42.0
 40
43.0
 40
43.0
 40
43.0
 40
44.0
 40
44.0
 40
44.0
 40
45.0
 40
45.0
 40
45.0
 40
46.0
 40
46.0
 40
46.0
 40
47.0
 40
47.0
 40
47.0
 40
48.0
 40
48.0
 40
48.0
 40
49.0
 40
49.0
 40
49.0
 40
50.0
 40
50.0
 40
50.0
 40
51.0
 40
51.0
 40
51.0
 40
52.0
 40
52.0
 40
52.0
 40
53.0
 40
53.0
 40
53.0
 40
54.0
 40
54.0
 40
54.0
 40
55.0
 40
55.0
 40
55.0
 40
56.0
 40
56.0
 40
56.0
 40
57.0
 40
57.0
 40
57.0
 40
58.0
 40
58.0
 40
58.0
 40
59.0
 40
59.0
 40
59.0
 40
60.0
 40
60.0
 40
60.0
 40
61.0
 40
61.0
 40
61.0
 40
62.0
 40
62.0
 40
62.0
 40
63.0
 40
63.0
 40
63.0
 40
64.0
 40
64.0
 40
64.0
 40
65.0
 40
65.0
 40
65.0
 40
66.0
 40
66.0
 40
66.0
 40
67.0
 40
67.0
 40
67.0
 40
68.0
 40
68.0
 40
68.0
 40
69.0
 40
69.0
 40
69.0
 40
70.0
 40
70.0
 40
70.0
 40
71.0
 40
71.0
 40
71.0
 40
72.0
 40
72.0
 40
72.0
 40
73.0
 40
73.0
 40
73.0
 40
74.0
 40
74.0
 40
74.0
 40
75.0
 40
75.0
 40
75.0
 40
76.0
 40
76.0
 40
76.0
 40
77.0
 40
77.0
 40
77.0
 40
78.0
 40
78.0
 40
78.0
 40
79.0
 40
79.0
 40
79.0
 40
80.0
 40
80.0
 40
80.0
 40
81.0
 40
81.0
 40
81.0
 40
82.0
 40
82.0
 40
82.0
 40
83.0
 40
83.0
 40
83.0
 40
84.0
 40
84.0
 40
84.0
 40
85.0
 40
85.0
 40
85.0
 40
86.0
 40
86.0
 40
86.0
 40
87.0
 40
87.0
 40
87.0
 40
88.0
 40
88.0
 40
88.0
 40
89.0
 40
89.0
 40
89.0
 40
90.0
 40
90.0
 40
90.0
 40
91.0
 40
91.0
 40
91.0
 40
92.0
 40
92.0
 40
92.0
 40
93.0
 40
93.0
 40
93.0
 40
94.0
 40
94.0
 40
94.0
 40
95.0
 40
95.0
 40
95.0
 40
96.0
 40
96.0
 40
96.0
 40
97.0
 40
97.0
 40
97.0
 40
98.0
 40
98.0
 40
98.0
 40
99.0
 40
99.0
 40
99.0
 40
100.0
 40
100.0
 40
100.0
 40
101.0
 40
101.0
 40
101.0
 40
101.0
 10
213.22021484375
 20
40.0
 30
0.0
 10
180.97998046875
 20
40.0
 30
0.0
 10
148.74072265625
 20
40.0
 30
0.0
 10
116.5
 20
40.0
 30
0.0
 10
116.5
 20
272.4716796875
 30
0.0
 10
116.5
 20
504.97021484375
 30
0.0
 10
116.5
 20
737.44091796875
 30
0.0
 10
116.4609375
 20
737.7197265625
 30
0.0
 10
116.55322265625
 20
737.8681640625
 30
0.0
 10
116.740234375
 20
737.9208984375
 30
0.0
 10
233.4580078125
 20
737.9208984375
 30
0.0
 10
350.1865234375
 20
737.9208984375
 30
0.0
 10
466.900390625
 20
737.9208984375
 30
0.0
 10
466.900390625
 20
505.29443359375
 30
0.0
 10
466.900390625
 20
272.623046875
 30
0.0
 10
466.900390625
 20
40.0
 30
0.0
 10
454.5
 20
40.0
 30
0.0
 10
442.1005859375
 20
40.0
 30
0.0
 10
429.7001953125
 20
40.0
 30
0.0
 10
428.6689453125
 20
46.80859375
 30
0.0
 10
429.5361328125
 20
53.5498046875
 30
0.0
 10
428.2607421875
 20
59.2001953125
 30
0.0
 10
427.478515625
 20
62.6630859375
 30
0.0
 10
424.97265625
 20
66.4609375
 30
0.0
 10
423.220703125
 20
69.2802734375
 30
0.0
 10
421.2109375
 20
72.51171875
 30
0.0
 10
419.3740234375
 20
75.99609375
 30
0.0
 10
417.220703125
 20
78.6396484375
 30
0.0
 10
412.224609375
 20
84.7744140625
 30
0.0
 10
402.8974609375
 20
86.2783203125
 30
0.0
 10
398.5
 20
92.7998046875
 30
0.0
 10
406.47265625
 20
108.533203125
 30
0.0
 10
414.3251953125
 20
124.8525390625
 30
0.0
 10
422.5
 20
142.0
 30
0.0
 10
426.3046875
 20
149.9794921875
 30
0.0
 10
431.47265625
 20
157.6435546875
 30
0.0
 10
434.2607421875
 20
166.7197265625
 30
0.0
 10
437.08984375
 20
175.93359375
 30
0.0
 10
439.70703125
 20
187.142578125
 30
0.0
 10
438.3408203125
 20
199.3603515625
 30
0.0
 10
437.6845703125
 20
205.2216796875
 30
0.0
 10
434.6298828125
 20
212.884765625
 30
0.0
 10
432.1005859375
 20
216.400390625
 30
0.0
 10
430.2177734375
 20
219.0166015625
 30
0.0
 10
428.8271484375
 20
219.9833984375
 30
0.0
 10
426.3408203125
 20
221.919921875
 30
0.0
 10
420.9267578125
 20
226.13671875
 30
0.0
 10
414.298828125
 20
229.8349609375
 30
0.0
 10
407.380859375
 20
232.0
 30
0.0
 10
408.640625
 20
231.95703125
 30
0.0
 10
407.4228515625
 20
232.45703125
 30
0.0
 10
407.380859375
 20
232.720703125
 30
0.0
 10
405.8349609375
 20
242.2392578125
 30
0.0
 10
407.435546875
 20
251.1357421875
 30
0.0
 10
406.1806640625
 20
260.80078125
 30
0.0
 10
404.3642578125
 20
274.783203125
 30
0.0
 10
402.3046875
 20
288.6669921875
 30
0.0
 10
400.419921875
 20
302.80078125
 30
0.0
 10
399.18359375
 20
312.0771484375
 30
0.0
 10
397.6044921875
 20
321.388671875
 30
0.0
 10
395.6201171875
 20
330.16015625
 30
0.0
 10
393.646484375
 20
338.8837890625
 30
0.0
 10
390.9921875
 20
346.9345703125
 30
0.0
 10
388.1806640625
 20
354.880859375
 30
0.0
 10
382.8583984375
 20
369.921875
 30
0.0
 10
375.8125
 20
385.39453125
 30
0.0
 10
368.2607421875
 20
399.2802734375
 30
0.0
 10
366.369140625
 20
402.75830078125
 30
0.0
 10
365.3359375
 20
406.81982421875
 30
0.0
 10
363.220703125
 20
410.3203125
 30
0.0
 10
361.154296875
 20
413.73876953125
 30
0.0
 10
359.4794921875
 20
417.16162109375
 30
0.0
 10
357.4599609375
 20
420.640625
 30
0.0
 10
351.0
 20
431.767578125
 30
0.0
 10
344.556640625
 20
446.9130859375
 30
0.0
 10
351.220703125
 20
460.96044921875
 30
0.0
 10
355.2001953125
 20
467.24560546875
 30
0.0
 10
359.7265625
 20
473.787109375
 30
0.0
 10
362.0205078125
 20
480.88037109375
 30
0.0
 10
364.6015625
 20
488.8603515625
 30
0.0
 10
365.5693359375
 20
498.35400390625
 30
0.0
 10
363.4599609375
 20
507.7607421875
 30
0.0
 10
362.7841796875
 20
510.77734375
 30
0.0
 10
361.470703125
 20
514.208984375
 30
0.0
 10
360.33984375
 20
517.3603515625
 30
0.0
 10
359.2412109375
 20
520.4228515625
 30
0.0
 10
357.359375
 20
523.28857421875
 30
0.0
 10
356.5
 20
526.24072265625
 30
0.0
 10
355.283203125
 20
530.4248046875
 30
0.0
 10
354.955078125
 20
539.29150390625
 30
0.0
 10
356.2607421875
 20
543.5205078125
 30
0.0
 10
357.404296875
 20
547.22900390625
 30
0.0
 10
361.0517578125
 20
550.896484375
 30
0.0
 10
363.7001953125
 20
554.32080078125
 30
0.0
 10
366.328125
 20
557.71728515625
 30
0.0
 10
368.7470703125
 20
561.03271484375
 30
0.0
 10
371.6201171875
 20
563.6806640625
 30
0.0
 10
374.65625
 20
566.478515625
 30
0.0
 10
377.3603515625
 20
569.54443359375
 30
0.0
 10
379.7802734375
 20
572.560546875
 30
0.0
 10
382.45703125
 20
575.89697265625
 30
0.0
 10
384.1689453125
 20
579.73291015625
 30
0.0
 10
387.220703125
 20
582.40087890625
 30
0.0
 10
388.220703125
 20
581.80517578125
 30
0.0
 10
389.9111328125
 20
581.8857421875
 30
0.0
 10
389.3798828125
 20
583.12060546875
 30
0.0
 10
391.7236328125
 20
579.419921875
 30
0.0
 10
393.9443359375
 20
575.4482421875
 30
0.0
 10
396.1005859375
 20
571.12060546875
 30
0.0
 10
397.09765625
 20
569.119140625
 30
0.0
 10
398.4462890625
 20
567.06396484375
 30
0.0
 10
399.4599609375
 20
564.880859375
 30
0.0
 10
400.490234375
 20
562.66455078125
 30
0.0
 10
401.1171875
 20
559.97021484375
 30
0.0
 10
402.3408203125
 20
557.9208984375
 30
0.0
 10
403.611328125
 20
555.7900390625
 30
0.0
 10
405.669921875
 20
553.80224609375
 30
0.0
 10
407.140625
 20
551.6806640625
 30
0.0
 10
408.7255859375
 20
549.3935546875
 30
0.0
 10
410.44140625
 20
547.3720703125
 30
0.0
 10
411.9404296875
 20
545.20068359375
 30
0.0
 10
415.1630859375
 20
540.5322265625
 30
0.0
 10
418.916015625
 20
536.78857421875
 30
0.0
 10
422.0205078125
 20
532.96044921875
 30
0.0
 10
425.6953125
 20
528.4306640625
 30
0.0
 10
427.0732421875
 20
522.3310546875
 30
0.0
 10
433.5400390625
 20
523.6005859375
 30
0.0
 10
434.884765625
 20
525.44091796875
 30
0.0
 10
438.005859375
 20
528.509765625
 30
0.0
 10
438.8203125
 20
532.00048828125
 30
0.0
 10
439.3095703125
 20
534.099609375
 30
0.0
 10
438.6171875
 20
537.46630859375
 30
0.0
 10
438.3408203125
 20
540.880859375
 30
0.0
 10
437.5244140625
 20
550.96630859375
 30
0.0
 10
435.978515625
 20
560.24560546875
 30
0.0
 10
434.2607421875
 20
568.24072265625
 30
0.0
 10
431.8447265625
 20
579.4833984375
 30
0.0
 10
429.517578125
 20
590.6435546875
 30
0.0
 10
425.6201171875
 20
600.880859375
 30
0.0
 10
423.845703125
 20
605.54296875
 30
0.0
 10
421.66796875
 20
610.80712890625
 30
0.0
 10
419.6201171875
 20
615.7607421875
 30
0.0
 10
417.658203125
 20
620.5078125
 30
0.0
 10
414.783203125
 20
624.94873046875
 30
0.0
 10
412.1806640625
 20
629.20068359375
 30
0.0
 10
409.7509765625
 20
633.17041015625
 30
0.0
 10
406.8525390625
 20
637.1669921875
 30
0.0
 10
403.30078125
 20
641.20068359375
 30
0.0
 10
401.076171875
 20
643.7265625
 30
0.0
 10
395.427734375
 20
651.1171875
 30
0.0
 10
391.7802734375
 20
651.28076171875
 30
0.0
 10
384.1279296875
 20
651.6240234375
 30
0.0
 10
378.3046875
 20
648.740234375
 30
0.0
 10
374.5
 20
645.041015625
 30
0.0
 10
372.1591796875
 20
642.7646484375
 30
0.0
 10
370.001953125
 20
639.251953125
 30
0.0
 10
367.7802734375
 20
636.16064453125
 30
0.0
 10
365.5849609375
 20
633.10595703125
 30
0.0
 10
363.6259765625
 20
629.60546875
 30
0.0
 10
361.7802734375
 20
626.560546875
 30
0.0
 10
353.9873046875
 20
613.70166015625
 30
0.0
 10
344.01171875
 20
601.71533203125
 30
0.0
 10
338.0205078125
 20
587.9208984375
 30
0.0
 10
334.81640625
 20
580.544921875
 30
0.0
 10
332.2119140625
 20
572.91015625
 30
0.0
 10
329.8603515625
 20
564.880859375
 30
0.0
 10
323.96484375
 20
568.20458984375
 30
0.0
 10
319.6806640625
 20
571.984375
 30
0.0
 10
312.1005859375
 20
572.80078125
 30
0.0
 10
308.1337890625
 20
573.2275390625
 30
0.0
 10
302.0244140625
 20
573.0361328125
 30
0.0
 10
297.9404296875
 20
573.5205078125
 30
0.0
 10
295.96728515625
 20
573.7548828125
 30
0.0
 10
291.55908203125
 20
572.3427734375
 30
0.0
 10
289.06005859375
 20
571.6005859375
 30
0.0
 10
286.7431640625
 20
570.91259765625
 30
0.0
 10
283.1416015625
 20
569.060546875
 30
0.0
 10
281.6201171875
 20
569.6806640625
 30
0.0
 10
279.9326171875
 20
570.36865234375
 30
0.0
 10
279.14111328125
 20
575.4296875
 30
0.0
 10
278.26025390625
 20
578.560546875
 30
0.0
 10
277.2412109375
 20
582.181640625
 30
0.0
 10
275.982421875
 20
585.248046875
 30
0.0
 10
275.14013671875
 20
587.9208984375
 30
0.0
 10
269.099609375
 20
607.08740234375
 30
0.0
 10
261.9599609375
 20
625.05859375
 30
0.0
 10
254.740234375
 20
641.9208984375
 30
0.0
 10
250.16845703125
 20
652.59814453125
 30
0.0
 10
243.4580078125
 20
664.1416015625
 30
0.0
 10
237.7001953125
 20
674.32080078125
 30
0.0
 10
234.7451171875
 20
679.54443359375
 30
0.0
 10
231.70361328125
 20
684.84619140625
 30
0.0
 10
228.580078125
 20
689.9208984375
 30
0.0
 10
223.43408203125
 20
698.28076171875
 30
0.0
 10
219.908203125
 20
706.2001953125
 30
0.0
 10
213.22021484375
 20
712.48095703125
 30
0.0
 10
210.8623046875
 20
714.69482421875
 30
0.0
 10
206.51416015625
 20
718.5146484375
 30
0.0
 10
203.6201171875
 20
718.720703125
 30
0.0
 10
200.68505859375
 20
718.9296875
 30
0.0
 10
197.62255859375
 20
716.7529296875
 30
0.0
 10
196.66015625
 20
714.880859375
 30
0.0
 10
194.7109375
 20
711.09033203125
 30
0.0
 10
196.1240234375
 20
702.41455078125
 30
0.0
 10
196.89990234375
 20
696.40087890625
 30
0.0
 10
197.68359375
 20
690.33056640625
 30
0.0
 10
198.6572265625
 20
683.802734375
 30
0.0
 10
199.06005859375
 20
678.880859375
 30
0.0
 10
200.1845703125
 20
665.14013671875
 30
0.0
 10
202.7353515625
 20
655.421875
 30
0.0
 10
205.06005859375
 20
644.08056640625
 30
0.0
 10
207.341796875
 20
632.94970703125
 30
0.0
 10
210.7802734375
 20
622.42626953125
 30
0.0
 10
213.22021484375
 20
610.9609375
 30
0.0
 10
214.35693359375
 20
605.619140625
 30
0.0
 10
215.6015625
 20
599.8017578125
 30
0.0
 10
217.5400390625
 20
594.640625
 30
0.0
 10
219.583984375
 20
589.2001953125
 30
0.0
 10
220.77197265625
 20
583.4091796875
 30
0.0
 10
222.8203125
 20
579.04052734375
 30
0.0
 10
223.57763671875
 20
577.4248046875
 30
0.0
 10
224.9443359375
 20
575.8798828125
 30
0.0
 10
225.93994140625
 20
574.24072265625
 30
0.0
 10
228.2626953125
 20
570.4189453125
 30
0.0
 10
230.03125
 20
567.55078125
 30
0.0
 10
232.66015625
 20
564.40087890625
 30
0.0
 10
235.2548828125
 20
561.291015625
 30
0.0
 10
237.841796875
 20
558.279296875
 30
0.0
 10
240.8203125
 20
555.7607421875
 30
0.0
 10
242.42431640625
 20
554.40380859375
 30
0.0
 10
244.53955078125
 20
553.43896484375
 30
0.0
 10
245.6201171875
 20
551.9208984375
 30
0.0
 10
247.40380859375
 20
549.4140625
 30
0.0
 10
249.0341796875
 20
543.54541015625
 30
0.0
 10
247.30029296875
 20
540.16064453125
 30
0.0
 10
246.9912109375
 20
539.5576171875
 30
0.0
 10
246.41015625
 20
539.5888671875
 30
0.0
 10
246.34033203125
 20
539.4404296875
 30
0.0
 10
245.9873046875
 20
538.693359375
 30
0.0
 10
246.158203125
 20
537.40380859375
 30
0.0
 10
245.8603515625
 20
536.560546875
 30
0.0
 10
244.04541015625
 20
531.423828125
 30
0.0
 10
240.8984375
 20
527.90869140625
 30
0.0
 10
238.900390625
 20
523.6005859375
 30
0.0
 10
235.1337890625
 20
515.48046875
 30
0.0
 10
233.29931640625
 20
500.74853515625
 30
0.0
 10
236.26025390625
 20
490.720703125
 30
0.0
 10
240.26513671875
 20
477.15576171875
 30
0.0
 10
248.384765625
 20
467.54052734375
 30
0.0
 10
255.4599609375
 20
457.12060546875
 30
0.0
 10
257.4892578125
 20
454.13232421875
 30
0.0
 10
261.4384765625
 20
449.63134765625
 30
0.0
 10
261.4599609375
 20
445.3603515625
 30
0.0
 10
261.47705078125
 20
442.02392578125
 30
0.0
 10
258.10009765625
 20
437.0
 30
0.0
 10
256.419921875
 20
433.12060546875
 30
0.0
 10
254.56640625
 20
428.83935546875
 30
0.0
 10
252.443359375
 20
424.9970703125
 30
0.0
 10
250.66015625
 20
421.6005859375
 30
0.0
 10
242.11572265625
 20
405.32470703125
 30
0.0
 10
235.98193359375
 20
390.8544921875
 30
0.0
 10
229.06005859375
 20
374.080078125
 30
0.0
 10
225.60986328125
 20
365.7197265625
 30
0.0
 10
223.27099609375
 20
356.8994140625
 30
0.0
 10
220.66015625
 20
347.919921875
 30
0.0
 10
219.390625
 20
343.5537109375
 30
0.0
 10
217.7470703125
 20
339.3369140625
 30
0.0
 10
216.34033203125
 20
334.9599609375
 30
0.0
 10
211.97265625
 20
321.3779296875
 30
0.0
 10
209.548828125
 20
307.5576171875
 30
0.0
 10
205.7802734375
 20
293.6806640625
 30
0.0
 10
202.07763671875
 20
280.0458984375
 30
0.0
 10
198.36328125
 20
266.3271484375
 30
0.0
 10
195.93994140625
 20
252.16015625
 30
0.0
 10
194.8515625
 20
245.7958984375
 30
0.0
 10
195.53076171875
 20
238.248046875
 30
0.0
 10
194.02001953125
 20
232.48046875
 30
0.0
 10
183.85791015625
 20
231.75390625
 30
0.0
 10
175.64697265625
 20
228.2255859375
 30
0.0
 10
170.97998046875
 20
222.640625
 30
0.0
 10
167.87744140625
 20
218.9267578125
 30
0.0
 10
164.50927734375
 20
212.28125
 30
0.0
 10
163.30029296875
 20
207.5205078125
 30
0.0
 10
159.92431640625
 20
194.228515625
 30
0.0
 10
162.32373046875
 20
180.4248046875
 30
0.0
 10
166.419921875
 20
169.1201171875
 30
0.0
 10
168.52978515625
 20
163.298828125
 30
0.0
 10
169.927734375
 20
157.572265625
 30
0.0
 10
172.18017578125
 20
152.3203125
 30
0.0
 10
181.71435546875
 20
130.087890625
 30
0.0
 10
192.79150390625
 20
109.8701171875
 30
0.0
 10
203.6201171875
 20
92.080078125
 30
0.0
 10
195.92724609375
 20
88.6435546875
 30
0.0
 10
187.130859375
 20
85.3154296875
 30
0.0
 10
181.30029296875
 20
79.599609375
 30
0.0
 10
178.814453125
 20
77.1640625
 30
0.0
 10
175.3251953125
 20
72.69921875
 30
0.0
 10
174.10009765625
 20
69.5205078125
 30
0.0
 10
171.0
 20
61.4736328125
 30
0.0
 10
170.24560546875
 20
52.6474609375
 30
0.0
 10
171.4599609375
 20
42.16015625
 30
0.0
 10
185.0458984375
 20
40.8857421875
 30
0.0
 10
198.74609375
 20
40.6142578125
 30
0.0
 10
213.22021484375
 20
40.0
 30
0.0
  0
HATCH
  5
43
330
3C
100
AcDbEntity
  8
Ebene 1
 62
     7
420
 16777215
100
AcDbHatch
 10
0.0
 20
0.0
 30
0.0
210
0.0
220
0.0
230
1.0
  2
SOLID
 70
     1
 71
     0
 91
        1
 92
        1
 93
        1
 72
     4
 94
        3
 73
     0
 74
     1
 95
      308
 96
      304
 40
0.0
 40
0.0
 40
0.0
 40
0.0
 40
1.0
 40
1.0
 40
1.0
 40
2.0
 40
2.0
 40
2.0
 40
3.0
 40
3.0
 40
3.0
 40
4.0
 40
4.0
 40
4.0
 40
5.0
 40
5.0
 40
5.0
 40
6.0
 40
6.0
 40
6.0
 40
7.0
 40
7.0
 40
7.0
 40
8.0
 40
8.0
 40
8.0
 40
9.0
 40
9.0
 40
9.0
 40
10.0
 40
10.0
 40
10.0
 40
11.0
 40
11.0
 40
11.0
 40
12.0
 40
12.0
 40
12.0
 40
13.0
 40
13.0
 40
13.0
 40
14.0
 40
14.0
 40
14.0
 40
15.0
 40
15.0
 40
15.0
 40
16.0
 40
16.0
 40
16.0
 40
17.0
 40
17.0
 40
17.0
 40
18.0
 40
18.0
 40
18.0
 40
19.0
 40
19.0
 40
19.0
 40
20.0
 40
20.0
 40
20.0
 40
21.0
 40
21.0
 40
21.0
 40
22.0
 40
22.0
 40
22.0
 40
23.0
 40
23.0
 40
23.0
 40
24.0
 40
24.0
 40
24.0
 40
25.0
 40
25.0
 40
25.0
 40
26.0
 40
26.0
 40
26.0
 40
27.0
 40
27.0
 40
27.0
 40
28.0
 40
28.0
 40
28.0
 40
29.0
 40
29.0
 40
29.0
 40
30.0
 40
30.0
 40
30.0
 40
31.0
 40
31.0
 40
31.0
 40
32.0
 40
32.0
 40
32.0
 40
33.0
 40
33.0
 40
33.0
 40
34.0
 40
34.0
 40
34.0
 40
35.0
 40
35.0
 40
35.0
 40
36.0
 40
36.0
 40
36.0
 40
37.0
 40
37.0
 40
37.0
 40
38.0
 40
38.0
 40
38.0
 40
39.0
 40
39.0
 40
39.0
 40
40.0
 40
40.0
 40
40.0
 40
41.0
 40
41.0
 40
41.0
 40
42.0
 40
42.0
 40
42.0
 40
43.0
 40
43.0
 40
43.0
 40
44.0
 40
44.0
 40
44.0
 40
45.0
 40
45.0
 40
45.0
 40
46.0
 40
46.0
 40
46.0
 40
47.0
 40
47.0
 40
47.0
 40
48.0
 40
48.0
 40
48.0
 40
49.0
 40
49.0
 40
49.0
 40
50.0
 40
50.0
 40
50.0
 40
51.0
 40
51.0
 40
51.0
 40
52.0
 40
52.0
 40
52.0
 40
53.0
 40
53.0
 40
53.0
 40
54.0
 40
54.0
 40
54.0
 40
55.0
 40
55.0
 40
55.0
 40
56.0
 40
56.0
 40
56.0
 40
57.0
 40
57.0
 40
57.0
 40
58.0
 40
58.0
 40
58.0
 40
59.0
 40
59.0
 40
59.0
 40
60.0
 40
60.0
 40
60.0
 40
61.0
 40
61.0
 40
61.0
 40
62.0
 40
62.0
 40
62.0
 40
63.0
 40
63.0
 40
63.0
 40
64.0
 40
64.0
 40
64.0
 40
65.0
 40
65.0
 40
65.0
 40
66.0
 40
66.0
 40
66.0
 40
67.0
 40
67.0
 40
67.0
 40
68.0
 40
68.0
 40
68.0
 40
69.0
 40
69.0
 40
69.0
 40
70.0
 40
70.0
 40
70.0
 40
71.0
 40
71.0
 40
71.0
 40
72.0
 40
72.0
 40
72.0
 40
73.0
 40
73.0
 40
73.0
 40
74.0
 40
74.0
 40
74.0
 40
75.0
 40
75.0
 40
75.0
 40
76.0
 40
76.0
 40
76.0
 40
77.0
 40
77.0
 40
77.0
 40
78.0
 40
78.0
 40
78.0
 40
79.0
 40
79.0
 40
79.0
 40
80.0
 40
80.0
 40
80.0
 40
81.0
 40
81.0
 40
81.0
 40
82.0
 40
82.0
 40
82.0
 40
83.0
 40
83.0
 40
83.0
 40
84.0
 40
84.0
 40
84.0
 40
85.0
 40
85.0
 40
85.0
 40
86.0
 40
86.0
 40
86.0
 40
87.0
 40
87.0
 40
87.0
 40
88.0
 40
88.0
 40
88.0
 40
89.0
 40
89.0
 40
89.0
 40
90.0
 40
90.0
 40
90.0
 40
91.0
 40
91.0
 40
91.0
 40
92.0
 40
92.0
 40
92.0
 40
93.0
 40
93.0
 40
93.0
 40
94.0
 40
94.0
 40
94.0
 40
95.0
 40
95.0
 40
95.0
 40
96.0
 40
96.0
 40
96.0
 40
97.0
 40
97.0
 40
97.0
 40
98.0
 40
98.0
 40
98.0
 40
99.0
 40
99.0
 40
99.0
 40
100.0
 40
100.0
 40
100.0
 40
101.0
 40
101.0
 40
101.0
 40
101.0
 10
213.22021484375
 20
40.0
 10
180.97998046875
 20
40.0
 10
148.74072265625
 20
40.0
 10
116.5
 20
40.0
 10
116.5
 20
272.4716796875
 10
116.5
 20
504.97021484375
 10
116.5
 20
737.44091796875
 10
116.4609375
 20
737.7197265625
 10
116.55322265625
 20
737.8681640625
 10
116.740234375
 20
737.9208984375
 10
233.4580078125
 20
737.9208984375
 10
350.1865234375
 20
737.9208984375
 10
466.900390625
 20
737.9208984375
 10
466.900390625
 20
505.29443359375
 10
466.900390625
 20
272.623046875
 10
466.900390625
 20
40.0
 10
454.5
 20
40.0
 10
442.1005859375
 20
40.0
 10
429.7001953125
 20
40.0
 10
428.6689453125
 20
46.80859375
 10
429.5361328125
 20
53.5498046875
 10
428.2607421875
 20
59.2001953125
 10
427.478515625
 20
62.6630859375
 10
424.97265625
 20
66.4609375
 10
423.220703125
 20
69.2802734375
 10
421.2109375
 20
72.51171875
 10
419.3740234375
 20
75.99609375
 10
417.220703125
 20
78.6396484375
 10
412.224609375
 20
84.7744140625
 10
402.8974609375
 20
86.2783203125
 10
398.5
 20
92.7998046875
 10
406.47265625
 20
108.533203125
 10
414.3251953125
 20
124.8525390625
 10
422.5
 20
142.0
 10
426.3046875
 20
149.9794921875
 10
431.47265625
 20
157.6435546875
 10
434.2607421875
 20
166.7197265625
 10
437.08984375
 20
175.93359375
 10
439.70703125
 20
187.142578125
 10
438.3408203125
 20
199.3603515625
 10
437.6845703125
 20
205.2216796875
 10
434.6298828125
 20
212.884765625
 10
432.1005859375
 20
216.400390625
 10
430.2177734375
 20
219.0166015625
 10
428.8271484375
 20
219.9833984375
 10
426.3408203125
 20
221.919921875
 10
420.9267578125
 20
226.13671875
 10
414.298828125
 20
229.8349609375
 10
407.380859375
 20
232.0
 10
408.640625
 20
231.95703125
 10
407.4228515625
 20
232.45703125
 10
407.380859375
 20
232.720703125
 10
405.8349609375
 20
242.2392578125
 10
407.435546875
 20
251.1357421875
 10
406.1806640625
 20
260.80078125
 10
404.3642578125
 20
274.783203125
 10
402.3046875
 20
288.6669921875
 10
400.419921875
 20
302.80078125
 10
399.18359375
 20
312.0771484375
 10
397.6044921875
 20
321.388671875
 10
395.6201171875
 20
330.16015625
 10
393.646484375
 20
338.8837890625
 10
390.9921875
 20
346.9345703125
 10
388.1806640625
 20
354.880859375
 10
382.8583984375
 20
369.921875
 10
375.8125
 20
385.39453125
 10
368.2607421875
 20
399.2802734375
 10
366.369140625
 20
402.75830078125
 10
365.3359375
 20
406.81982421875
 10
363.220703125
 20
410.3203125
 10
361.154296875
 20
413.73876953125
 10
359.4794921875
 20
417.16162109375
 10
357.4599609375
 20
420.640625
 10
351.0
 20
431.767578125
 10
344.556640625
 20
446.9130859375
 10
351.220703125
 20
460.96044921875
 10
355.2001953125
 20
467.24560546875
 10
359.7265625
 20
473.787109375
 10
362.0205078125
 20
480.88037109375
 10
364.6015625
 20
488.8603515625
 10
365.5693359375
 20
498.35400390625
 10
363.4599609375
 20
507.7607421875
 10
362.7841796875
 20
510.77734375
 10
361.470703125
 20
514.208984375
 10
360.33984375
 20
517.3603515625
 10
359.2412109375
 20
520.4228515625
 10
357.359375
 20
523.28857421875
 10
356.5
 20
526.24072265625
 10
355.283203125
 20
530.4248046875
 10
354.955078125
 20
539.29150390625
 10
356.2607421875
 20
543.5205078125
 10
357.404296875
 20
547.22900390625
 10
361.0517578125
 20
550.896484375
 10
363.7001953125
 20
554.32080078125
 10
366.328125
 20
557.71728515625
 10
368.7470703125
 20
561.03271484375
 10
371.6201171875
 20
563.6806640625
 10
374.65625
 20
566.478515625
 10
377.3603515625
 20
569.54443359375
 10
379.7802734375
 20
572.560546875
 10
382.45703125
 20
575.89697265625
 10
384.1689453125
 20
579.73291015625
 10
387.220703125
 20
582.40087890625
 10
388.220703125
 20
581.80517578125
 10
389.9111328125
 20
581.8857421875
 10
389.3798828125
 20
583.12060546875
 10
391.7236328125
 20
579.419921875
 10
393.9443359375
 20
575.4482421875
 10
396.1005859375
 20
571.12060546875
 10
397.09765625
 20
569.119140625
 10
398.4462890625
 20
567.06396484375
 10
399.4599609375
 20
564.880859375
 10
400.490234375
 20
562.66455078125
 10
401.1171875
 20
559.97021484375
 10
402.3408203125
 20
557.9208984375
 10
403.611328125
 20
555.7900390625
 10
405.669921875
 20
553.80224609375
 10
407.140625
 20
551.6806640625
 10
408.7255859375
 20
549.3935546875
 10
410.44140625
 20
547.3720703125
 10
411.9404296875
 20
545.20068359375
 10
415.1630859375
 20
540.5322265625
 10
418.916015625
 20
536.78857421875
 10
422.0205078125
 20
532.96044921875
 10
425.6953125
 20
528.4306640625
 10
427.0732421875
 20
522.3310546875
 10
433.5400390625
 20
523.6005859375
 10
434.884765625
 20
525.44091796875
 10
438.005859375
 20
528.509765625
 10
438.8203125
 20
532.00048828125
 10
439.3095703125
 20
534.099609375
 10
438.6171875
 20
537.46630859375
 10
438.3408203125
 20
540.880859375
 10
437.5244140625
 20
550.96630859375
 10
435.978515625
 20
560.24560546875
 10
434.2607421875
 20
568.24072265625
 10
431.8447265625
 20
579.4833984375
 10
429.517578125
 20
590.6435546875
 10
425.6201171875
 20
600.880859375
 10
423.845703125
 20
605.54296875
 10
421.66796875
 20
610.80712890625
 10
419.6201171875
 20
615.7607421875
 10
417.658203125
 20
620.5078125
 10
414.783203125
 20
624.94873046875
 10
412.1806640625
 20
629.20068359375
 10
409.7509765625
 20
633.17041015625
 10
406.8525390625
 20
637.1669921875
 10
403.30078125
 20
641.20068359375
 10
401.076171875
 20
643.7265625
 10
395.427734375
 20
651.1171875
 10
391.7802734375
 20
651.28076171875
 10
384.1279296875
 20
651.6240234375
 10
378.3046875
 20
648.740234375
 10
374.5
 20
645.041015625
 10
372.1591796875
 20
642.7646484375
 10
370.001953125
 20
639.251953125
 10
367.7802734375
 20
636.16064453125
 10
365.5849609375
 20
633.10595703125
 10
363.6259765625
 20
629.60546875
 10
361.7802734375
 20
626.560546875
 10
353.9873046875
 20
613.70166015625
 10
344.01171875
 20
601.71533203125
 10
338.0205078125
 20
587.9208984375
 10
334.81640625
 20
580.544921875
 10
332.2119140625
 20
572.91015625
 10
329.8603515625
 20
564.880859375
 10
323.96484375
 20
568.20458984375
 10
319.6806640625
 20
571.984375
 10
312.1005859375
 20
572.80078125
 10
308.1337890625
 20
573.2275390625
 10
302.0244140625
 20
573.0361328125
 10
297.9404296875
 20
573.5205078125
 10
295.96728515625
 20
573.7548828125
 10
291.55908203125
 20
572.3427734375
 10
289.06005859375
 20
571.6005859375
 10
286.7431640625
 20
570.91259765625
 10
283.1416015625
 20
569.060546875
 10
281.6201171875
 20
569.6806640625
 10
279.9326171875
 20
570.36865234375
 10
279.14111328125
 20
575.4296875
 10
278.26025390625
 20
578.560546875
 10
277.2412109375
 20
582.181640625
 10
275.982421875
 20
585.248046875
 10
275.14013671875
 20
587.9208984375
 10
269.099609375
 20
607.08740234375
 10
261.9599609375
 20
625.05859375
 10
254.740234375
 20
641.9208984375
 10
250.16845703125
 20
652.59814453125
 10
243.4580078125
 20
664.1416015625
 10
237.7001953125
 20
674.32080078125
 10
234.7451171875
 20
679.54443359375
 10
231.70361328125
 20
684.84619140625
 10
228.580078125
 20
689.9208984375
 10
223.43408203125
 20
698.28076171875
 10
219.908203125
 20
706.2001953125
 10
213.22021484375
 20
712.48095703125
 10
210.8623046875
 20
714.69482421875
 10
206.51416015625
 20
718.5146484375
 10
203.6201171875
 20
718.720703125
 10
200.68505859375
 20
718.9296875
 10
197.62255859375
 20
716.7529296875
 10
196.66015625
 20
714.880859375
 10
194.7109375
 20
711.09033203125
 10
196.1240234375
 20
702.41455078125
 10
196.89990234375
 20
696.40087890625
 10
197.68359375
 20
690.33056640625
 10
198.6572265625
 20
683.802734375
 10
199.06005859375
 20
678.880859375
 10
200.1845703125
 20
665.14013671875
 10
202.7353515625
 20
655.421875
 10
205.06005859375
 20
644.08056640625
 10
207.341796875
 20
632.94970703125
 10
210.7802734375
 20
622.42626953125
 10
213.22021484375
 20
610.9609375
 10
214.35693359375
 20
605.619140625
 10
215.6015625
 20
599.8017578125
 10
217.5400390625
 20
594.640625
 10
219.583984375
 20
589.2001953125
 10
220.77197265625
 20
583.4091796875
 10
222.8203125
 20
579.04052734375
 10
223.57763671875
 20
577.4248046875
 10
224.9443359375
 20
575.8798828125
 10
225.93994140625
 20
574.24072265625
 10
228.2626953125
 20
570.4189453125
 10
230.03125
 20
567.55078125
 10
232.66015625
 20
564.40087890625
 10
235.2548828125
 20
561.291015625
 10
237.841796875
 20
558.279296875
 10
240.8203125
 20
555.7607421875
 10
242.42431640625
 20
554.40380859375
 10
244.53955078125
 20
553.43896484375
 10
245.6201171875
 20
551.9208984375
 10
247.40380859375
 20
549.4140625
 10
249.0341796875
 20
543.54541015625
 10
247.30029296875
 20
540.16064453125
 10
246.9912109375
 20
539.5576171875
 10
246.41015625
 20
539.5888671875
 10
246.34033203125
 20
539.4404296875
 10
245.9873046875
 20
538.693359375
 10
246.158203125
 20
537.40380859375
 10
245.8603515625
 20
536.560546875
 10
244.04541015625
 20
531.423828125
 10
240.8984375
 20
527.90869140625
 10
238.900390625
 20
523.6005859375
 10
235.1337890625
 20
515.48046875
 10
233.29931640625
 20
500.74853515625
 10
236.26025390625
 20
490.720703125
 10
240.26513671875
 20
477.15576171875
 10
248.384765625
 20
467.54052734375
 10
255.4599609375
 20
457.12060546875
 10
257.4892578125
 20
454.13232421875
 10
261.4384765625
 20
449.63134765625
 10
261.4599609375
 20
445.3603515625
 10
261.47705078125
 20
442.02392578125
 10
258.10009765625
 20
437.0
 10
256.419921875
 20
433.12060546875
 10
254.56640625
 20
428.83935546875
 10
252.443359375
 20
424.9970703125
 10
250.66015625
 20
421.6005859375
 10
242.11572265625
 20
405.32470703125
 10
235.98193359375
 20
390.8544921875
 10
229.06005859375
 20
374.080078125
 10
225.60986328125
 20
365.7197265625
 10
223.27099609375
 20
356.8994140625
 10
220.66015625
 20
347.919921875
 10
219.390625
 20
343.5537109375
 10
217.7470703125
 20
339.3369140625
 10
216.34033203125
 20
334.9599609375
 10
211.97265625
 20
321.3779296875
 10
209.548828125
 20
307.5576171875
 10
205.7802734375
 20
293.6806640625
 10
202.07763671875
 20
280.0458984375
 10
198.36328125
 20
266.3271484375
 10
195.93994140625
 20
252.16015625
 10
194.8515625
 20
245.7958984375
 10
195.53076171875
 20
238.248046875
 10
194.02001953125
 20
232.48046875
 10
183.85791015625
 20
231.75390625
 10
175.64697265625
 20
228.2255859375
 10
170.97998046875
 20
222.640625
 10
167.87744140625
 20
218.9267578125
 10
164.50927734375
 20
212.28125
 10
163.30029296875
 20
207.5205078125
 10
159.92431640625
 20
194.228515625
 10
162.32373046875
 20
180.4248046875
 10
166.419921875
 20
169.1201171875
 10
168.52978515625
 20
163.298828125
 10
169.927734375
 20
157.572265625
 10
172.18017578125
 20
152.3203125
 10
181.71435546875
 20
130.087890625
 10
192.79150390625
 20
109.8701171875
 10
203.6201171875
 20
92.080078125
 10
195.92724609375
 20
88.6435546875
 10
187.130859375
 20
85.3154296875
 10
181.30029296875
 20
79.599609375
 10
178.814453125
 20
77.1640625
 10
175.3251953125
 20
72.69921875
 10
174.10009765625
 20
69.5205078125
 10
171.0
 20
61.4736328125
 10
170.24560546875
 20
52.6474609375
 10
171.4599609375
 20
42.16015625
 10
185.0458984375
 20
40.8857421875
 10
198.74609375
 20
40.6142578125
 10
213.22021484375
 20
40.0
 97
        0
 75
     0
 76
     1
 98
        0
  0
ENDBLK
  5
3F
330
3C
100
AcDbEntity
  8
0
100
AcDbBlockEnd
  0
ENDSEC
  0
SECTION
  2
ENTITIES
  0
INSERT
  5
3D
330
1F
100
AcDbEntity
  8
Ebene 1
100
AcDbBlockReference
  2
block 2
 10
0.0
 20
0.0
 30
0.0
  0
ENDSEC
  0
SECTION
  2
OBJECTS
  0
DICTIONARY
  5
C
330
0
100
AcDbDictionary
281
     1
  3
ACAD_GROUP
350
D
  3
ACAD_LAYOUT
350
1A
  3
ACAD_MLINESTYLE
350
17
  3
ACAD_PLOTSETTINGS
350
19
  3
ACAD_PLOTSTYLENAME
350
E
  3
ACAD_TABLESTYLE
350
44
  3
ACAD_VISUALSTYLE
350
2A
  0
DICTIONARY
  5
D
102
{ACAD_REACTORS
330
C
102
}
330
C
100
AcDbDictionary
281
     1
  0
DICTIONARY
  5
1A
102
{ACAD_REACTORS
330
C
102
}
330
C
100
AcDbDictionary
281
     1
  3
Layout1
350
1E
  3
Layout2
350
26
  3
Model
350
22
  0
DICTIONARY
  5
17
102
{ACAD_REACTORS
330
C
102
}
330
C
100
AcDbDictionary
281
     1
  3
Standard
350
18
  0
DICTIONARY
  5
19
102
{ACAD_REACTORS
330
C
102
}
330
C
100
AcDbDictionary
281
     1
  0
ACDBDICTIONARYWDFLT
  5
E
102
{ACAD_REACTORS
330
C
102
}
330
C
100
AcDbDictionary
281
     1
  3
Normal
350
F
100
AcDbDictionaryWithDefault
340
F
  0
DICTIONARY
  5
44
102
{ACAD_REACTORS
330
C
102
}
330
C
100
AcDbDictionary
281
     1
  0
DICTIONARY
  5
2A
102
{ACAD_REACTORS
330
C
102
}
330
C
100
AcDbDictionary
281
     1
  3
2dWireframe
350
2F
  3
3D Hidden
350
31
  3
3dWireframe
350
30
  3
Basic
350
32
  3
Brighten
350
36
  3
ColorChange
350
3A
  3
Conceptual
350
34
  3
Dim
350
35
  3
Facepattern
350
39
  3
Flat
350
2B
  3
FlatWithEdges
350
2C
  3
Gouraud
350
2D
  3
GouraudWithEdges
350
2E
  3
Linepattern
350
38
  3
Realistic
350
33
  3
Thicken
350
37
  0
LAYOUT
  5
1E
102
{ACAD_REACTORS
330
1A
102
}
330
1A
100
AcDbPlotSettings
  1

  2
none_device
  4

  6

 40
0.0
 41
0.0
 42
0.0
 43
0.0
 44
0.0
 45
0.0
 46
0.0
 47
0.0
 48
0.0
 49
0.0
140
0.0
141
0.0
142
1.0
143
1.0
 70
   688
 72
     0
 73
     0
 74
     5
  7

 75
    16
 76
     0
 77
     2
 78
   300
147
1.0
148
0.0
149
0.0
100
AcDbLayout
  1
Layout1
 70
     1
 71
     1
 10
0.0
 20
0.0
 11
12.0
 21
9.0
 12
0.0
 22
0.0
 32
0.0
 14
1.000000000000000E+20
 24
1.000000000000000E+20
 34
1.000000000000000E+20
 15
-1.000000000000000E+20
 25
-1.000000000000000E+20
 35
-1.000000000000000E+20
146
0.0
 13
0.0
 23
0.0
 33
0.0
 16
1.0
 26
0.0
 36
0.0
 17
0.0
 27
1.0
 37
0.0
 76
     0
330
1B
  0
LAYOUT
  5
26
102
{ACAD_REACTORS
330
1A
102
}
330
1A
100
AcDbPlotSettings
  1

  2
none_device
  4

  6

 40
0.0
 41
0.0
 42
0.0
 43
0.0
 44
0.0
 45
0.0
 46
0.0
 47
0.0
 48
0.0
 49
0.0
140
0.0
141
0.0
142
1.0
143
1.0
 70
   688
 72
     0
 73
     0
 74
     5
  7

 75
    16
 76
     0
 77
     2
 78
   300
147
1.0
148
0.0
149
0.0
100
AcDbLayout
  1
Layout2
 70
     1
 71
     2
 10
0.0
 20
0.0
 11
0.0
 21
0.0
 12
0.0
 22
0.0
 32
0.0
 14
0.0
 24
0.0
 34
0.0
 15
0.0
 25
0.0
 35
0.0
146
0.0
 13
0.0
 23
0.0
 33
0.0
 16
1.0
 26
0.0
 36
0.0
 17
0.0
 27
1.0
 37
0.0
 76
     0
330
23
  0
LAYOUT
  5
22
102
{ACAD_REACTORS
330
1A
102
}
330
1A
100
AcDbPlotSettings
  1

  2
none_device
  4

  6

 40
0.0
 41
0.0
 42
0.0
 43
0.0
 44
0.0
 45
0.0
 46
0.0
 47
0.0
 48
0.0
 49
0.0
140
0.0
141
0.0
142
1.0
143
1.0
 70
  1712
 72
     0
 73
     0
 74
     0
  7

 75
     0
 76
     0
 77
     2
 78
   300
147
1.0
148
0.0
149
0.0
100
AcDbLayout
  1
Model
 70
     1
 71
     0
 10
0.0
 20
0.0
 11
12.0
 21
9.0
 12
0.0
 22
0.0
 32
0.0
 14
1.000000000000000E+20
 24
1.000000000000000E+20
 34
1.000000000000000E+20
 15
-1.000000000000000E+20
 25
-1.000000000000000E+20
 35
-1.000000000000000E+20
146
0.0
 13
0.0
 23
0.0
 33
0.0
 16
1.0
 26
0.0
 36
0.0
 17
0.0
 27
1.0
 37
0.0
 76
     0
330
1F
331
29
  0
MLINESTYLE
  5
18
102
{ACAD_REACTORS
330
17
102
}
330
17
100
AcDbMlineStyle
  2
Standard
 70
     0
  3

 62
   256
 51
90.0
 52
90.0
 71
     2
 49
0.5
 62
   256
  6
BYLAYER
 49
-0.5
 62
   256
  6
BYLAYER
  0
ACDBPLACEHOLDER
  5
F
102
{ACAD_REACTORS
330
E
102
}
330
E
  0
VISUALSTYLE
  5
2F
102
{ACAD_REACTORS
330
2A
102
}
330
2A
100
AcDbVisualStyle
  2
2dWireframe
 70
     4
 71
     0
 72
     2
 73
     0
 90
        0
 40
-0.6
 41
-30.0
 62
     5
 63
     7
421
 16777215
 74
     1
 91
        4
 64
     7
 65
   257
 75
     1
175
     1
 42
1.0
 92
        0
 66
   257
 43
1.0
 76
     1
 77
     6
 78
     2
 67
     7
 79
     5
170
     0
171
     0
290
     0
174
     0
 93
        1
 44
0.0
173
     0
291
     0
 45
0.0
1001
ACAD
1000
AcDbSavedByObjectVersion
1070
     0
  0
VISUALSTYLE
  5
31
102
{ACAD_REACTORS
330
2A
102
}
330
2A
100
AcDbVisualStyle
  2
3D Hidden
 70
     6
 71
     1
 72
     2
 73
     2
 90
        0
 40
-0.6
 41
-30.0
 62
     5
 63
     7
421
 16777215
 74
     2
 91
        2
 64
     7
 65
   257
 75
     2
175
     1
 42
40.0
 92
        0
 66
   257
 43
1.0
 76
     1
 77
     6
 78
     2
 67
     7
 79
     3
170
     0
171
     0
290
     0
174
     0
 93
        1
 44
0.0
173
     0
291
     0
 45
0.0
1001
ACAD
1000
AcDbSavedByObjectVersion
1070
     0
  0
VISUALSTYLE
  5
30
102
{ACAD_REACTORS
330
2A
102
}
330
2A
100
AcDbVisualStyle
  2
3dWireframe
 70
     5
 71
     0
 72
     2
 73
     0
 90
        0
 40
-0.6
 41
-30.0
 62
     5
 63
     7
421
 16777215
 74
     1
 91
        4
 64
     7
 65
   257
 75
     1
175
     1
 42
1.0
 92
        0
 66
   257
 43
1.0
 76
     1
 77
     6
 78
     2
 67
     7
 79
     5
170
     0
171
     0
290
     0
174
     0
 93
        1
 44
0.0
173
     0
291
     0
 45
0.0
1001
ACAD
1000
AcDbSavedByObjectVersion
1070
     0
  0
VISUALSTYLE
  5
32
102
{ACAD_REACTORS
330
2A
102
}
330
2A
100
AcDbVisualStyle
  2
Basic
 70
     7
 71
     1
 72
     0
 73
     1
 90
        0
 40
-0.6
 41
-30.0
 62
     5
 63
     7
421
 16777215
 74
     0
 91
        4
 64
     7
 65
   257
 75
     1
175
     1
 42
1.0
 92
        8
 66
     7
 43
1.0
 76
     1
 77
     6
 78
     2
 67
     7
 79
     5
170
     0
171
     0
290
     0
174
     0
 93
        1
 44
0.0
173
     0
291
     1
 45
0.0
1001
ACAD
1000
AcDbSavedByObjectVersion
1070
     0
  0
VISUALSTYLE
  5
36
102
{ACAD_REACTORS
330
2A
102
}
330
2A
100
AcDbVisualStyle
  2
Brighten
 70
    12
 71
     2
 72
     2
 73
     0
 90
        0
 40
-0.6
 41
-30.0
 62
     5
 63
     7
421
 16777215
 74
     1
 91
        4
 64
     7
 65
   257
 75
     1
175
     1
 42
1.0
 92
        8
 66
     7
 43
1.0
 76
     1
 77
     6
 78
     2
 67
     7
 79
     5
170
     0
171
     0
290
     0
174
     0
 93
        1
 44
50.0
173
     0
291
     1
 45
0.0
1001
ACAD
1000
AcDbSavedByObjectVersion
1070
     0
  0
VISUALSTYLE
  5
3A
102
{ACAD_REACTORS
330
2A
102
}
330
2A
100
AcDbVisualStyle
  2
ColorChange
 70
    16
 71
     2
 72
     2
 73
     3
 90
        0
 40
-0.6
 41
-30.0
 62
     5
 63
     8
421
  8421504
 74
     1
 91
        4
 64
     7
 65
   257
 75
     1
175
     1
 42
1.0
 92
        8
 66
     8
424
  8421504
 43
1.0
 76
     1
 77
     6
 78
     2
 67
     7
 79
     5
170
     0
171
     0
290
     0
174
     0
 93
        1
 44
0.0
173
     0
291
     1
 45
0.0
1001
ACAD
1000
AcDbSavedByObjectVersion
1070
     0
  0
VISUALSTYLE
  5
34
102
{ACAD_REACTORS
330
2A
102
}
330
2A
100
AcDbVisualStyle
  2
Conceptual
 70
     9
 71
     3
 72
     2
 73
     0
 90
        0
 40
-0.6
 41
-30.0
 62
     5
 63
     7
421
 16777215
 74
     2
 91
        2
 64
     7
 65
   257
 75
     1
175
     1
 42
40.0
 92
        8
 66
     7
 43
1.0
 76
     1
 77
     6
 78
     2
 67
     7
 79
     3
170
     0
171
     0
290
     0
174
     0
 93
        1
 44
0.0
173
     0
291
     0
 45
0.0
1001
ACAD
1000
AcDbSavedByObjectVersion
1070
     0
  0
VISUALSTYLE
  5
35
102
{ACAD_REACTORS
330
2A
102
}
330
2A
100
AcDbVisualStyle
  2
Dim
 70
    11
 71
     2
 72
     2
 73
     0
 90
        0
 40
-0.6
 41
-30.0
 62
     5
 63
     7
421
 16777215
 74
     1
 91
        4
 64
     7
 65
   257
 75
     1
175
     1
 42
1.0
 92
        8
 66
     7
 43
1.0
 76
     1
 77
     6
 78
     2
 67
     7
 79
     5
170
     0
171
     0
290
     0
174
     0
 93
        1
 44
-50.0
173
     0
291
     1
 45
0.0
1001
ACAD
1000
AcDbSavedByObjectVersion
1070
     0
  0
VISUALSTYLE
  5
39
102
{ACAD_REACTORS
330
2A
102
}
330
2A
100
AcDbVisualStyle
  2
Facepattern
 70
    15
 71
     2
 72
     2
 73
     0
 90
        0
 40
-0.6
 41
-30.0
 62
     5
 63
     7
421
 16777215
 74
     1
 91
        4
 64
     7
 65
   257
 75
     1
175
     1
 42
1.0
 92
        8
 66
     7
 43
1.0
 76
     1
 77
     6
 78
     2
 67
     7
 79
     5
170
     0
171
     0
290
     0
174
     0
 93
        1
 44
0.0
173
     0
291
     1
 45
0.0
1001
ACAD
1000
AcDbSavedByObjectVersion
1070
     0
  0
VISUALSTYLE
  5
2B
102
{ACAD_REACTORS
330
2A
102
}
330
2A
100
AcDbVisualStyle
  2
Flat
 70
     0
 71
     2
 72
     1
 73
     1
 90
        2
 40
-0.6
 41
30.0
 62
     5
 63
     7
421
 16777215
 74
     0
 91
        4
 64
     7
 65
   257
 75
     1
175
     1
 42
1.0
 92
        8
 66
     7
 43
1.0
 76
     1
 77
     6
 78
     2
 67
     7
 79
     5
170
     0
171
     0
290
     0
174
     0
 93
       13
 44
0.0
173
     0
291
     1
 45
0.0
1001
ACAD
1000
AcDbSavedByObjectVersion
1070
     0
  0
VISUALSTYLE
  5
2C
102
{ACAD_REACTORS
330
2A
102
}
330
2A
100
AcDbVisualStyle
  2
FlatWithEdges
 70
     1
 71
     2
 72
     1
 73
     1
 90
        2
 40
-0.6
 41
30.0
 62
     5
 63
     7
421
 16777215
 74
     1
 91
        4
 64
     7
 65
   257
 75
     1
175
     1
 42
1.0
 92
        0
 66
   257
 43
1.0
 76
     1
 77
     6
 78
     2
 67
     7
 79
     5
170
     0
171
     0
290
     0
174
     0
 93
       13
 44
0.0
173
     0
291
     1
 45
0.0
1001
ACAD
1000
AcDbSavedByObjectVersion
1070
     0
  0
VISUALSTYLE
  5
2D
102
{ACAD_REACTORS
330
2A
102
}
330
2A
100
AcDbVisualStyle
  2
Gouraud
 70
     2
 71
     2
 72
     2
 73
     1
 90
        2
 40
-0.6
 41
30.0
 62
     5
 63
     7
421
 16777215
 74
     0
 91
        4
 64
     7
 65
   257
 75
     1
175
     1
 42
1.0
 92
        0
 66
     7
 43
1.0
 76
     1
 77
     6
 78
     2
 67
     7
 79
     5
170
     0
171
     0
290
     0
174
     0
 93
       13
 44
0.0
173
     0
291
     1
 45
0.0
1001
ACAD
1000
AcDbSavedByObjectVersion
1070
     0
  0
VISUALSTYLE
  5
2E
102
{ACAD_REACTORS
330
2A
102
}
330
2A
100
AcDbVisualStyle
  2
GouraudWithEdges
 70
     3
 71
     2
 72
     2
 73
     1
 90
        2
 40
-0.6
 41
30.0
 62
     5
 63
     7
421
 16777215
 74
     1
 91
        4
 64
     7
 65
   257
 75
     1
175
     1
 42
1.0
 92
        0
 66
   257
 43
1.0
 76
     1
 77
     6
 78
     2
 67
     7
 79
     5
170
     0
171
     0
290
     0
174
     0
 93
       13
 44
0.0
173
     0
291
     1
 45
0.0
1001
ACAD
1000
AcDbSavedByObjectVersion
1070
     0
  0
VISUALSTYLE
  5
38
102
{ACAD_REACTORS
330
2A
102
}
330
2A
100
AcDbVisualStyle
  2
Linepattern
 70
    14
 71
     2
 72
     2
 73
     0
 90
        0
 40
-0.6
 41
-30.0
 62
     5
 63
     7
421
 16777215
 74
     1
 91
        4
 64
     7
 65
   257
 75
     7
175
     7
 42
1.0
 92
        8
 66
     7
 43
1.0
 76
     1
 77
     6
 78
     2
 67
     7
 79
     5
170
     0
171
     0
290
     0
174
     0
 93
        1
 44
0.0
173
     0
291
     1
 45
0.0
1001
ACAD
1000
AcDbSavedByObjectVersion
1070
     0
  0
VISUALSTYLE
  5
33
102
{ACAD_REACTORS
330
2A
102
}
330
2A
100
AcDbVisualStyle
  2
Realistic
 70
     8
 71
     2
 72
     2
 73
     0
 90
        0
 40
-0.6
 41
-30.0
 62
     5
 63
     7
421
 16777215
 74
     1
 91
        0
 64
     7
 65
   257
 75
     1
175
     1
 42
1.0
 92
        8
 66
     8
424
  7895160
 43
1.0
 76
     1
 77
     6
 78
     2
 67
     7
 79
     5
170
     0
171
     0
290
     0
174
     0
 93
       13
 44
0.0
173
     0
291
     0
 45
0.0
1001
ACAD
1000
AcDbSavedByObjectVersion
1070
     0
  0
VISUALSTYLE
  5
37
102
{ACAD_REACTORS
330
2A
102
}
330
2A
100
AcDbVisualStyle
  2
Thicken
 70
    13
 71
     2
 72
     2
 73
     0
 90
        0
 40
-0.6
 41
-30.0
 62
     5
 63
     7
421
 16777215
 74
     1
 91
        4
 64
     7
 65
   257
 75
     1
175
     1
 42
1.0
 92
       12
 66
     7
 43
1.0
 76
     1
 77
     6
 78
     2
 67
     7
 79
     5
170
     0
171
     0
290
     0
174
     0
 93
        1
 44
0.0
173
     0
291
     1
 45
0.0
1001
ACAD
1000
AcDbSavedByObjectVersion
1070
     0
  0
ENDSEC
  0
EOF
